<?xml version="1.0" encoding="utf-8" ?>
<svg xmlns="http://www.w3.org/2000/svg" xmlns:xlink="http://www.w3.org/1999/xlink" width="512" height="512">
	<path fill="#F6E4CF" transform="scale(0.666667 0.666667)" d="M0 0.1875C1.70241 -0.185587 3.61693 -0.00979729 5.35479 -0.0090068C8.44963 -0.00759905 11.5445 -0.00845752 14.6393 -0.00881649C26.6055 -0.0102045 38.5716 -0.00977825 50.5378 -0.00976663C98.2915 -0.00972023 146.045 -0.00952629 193.799 -0.0102393C385.199 -0.0130972 576.6 -0.00755292 768 0L768 767.812C766.298 768.186 764.383 768.01 762.645 768.009C759.55 768.008 756.456 768.008 753.361 768.009C741.395 768.01 729.428 768.01 717.462 768.01C669.708 768.01 621.955 768.01 574.201 768.01C382.801 768.013 191.4 768.008 -0 768L0 0.1875Z"/>
	<path fill="#0C7FB9" transform="scale(0.666667 0.666667)" d="M82.0644 162.188C83.0329 162.009 83.5888 161.822 84.5202 162.248C84.5335 163.366 81.7881 165.596 80.879 166.532C76.8293 170.701 74.4295 175.928 71.8125 181.044C71.4408 181.606 71.2024 181.825 70.6875 182.232L70.0631 181.875C70.0376 181.367 70.0088 181.331 70.1366 180.75C70.4245 179.441 71.4552 177.853 72.0271 176.616C74.3595 171.571 77.216 165.272 82.0644 162.188Z"/>
	<path fill="#010936" transform="scale(0.666667 0.666667)" d="M653.54 682.598C655.383 682.644 657.107 682.765 658.875 683.347C663.251 684.787 668.845 689.009 670.913 693.188C671.378 694.129 671.485 695.103 671.062 696.094C670.689 696.969 670.011 697.257 669.188 697.549L662.201 691.394C661.108 690.772 659.99 690.138 658.779 689.77C652.536 687.874 649.832 690.945 644.643 693.109C643.582 693.552 643.198 693.356 642.188 692.896C641.975 691.306 642.636 690.224 643.47 688.875C645.874 684.987 649.301 683.52 653.54 682.598Z"/>
	<path fill="#010936" transform="scale(0.666667 0.666667)" d="M93.9241 669.352L97.0954 663.562C99.0272 660.73 101.884 658.058 105.375 657.478C108.312 656.991 112.181 657.35 114.544 659.279C115.888 660.376 116.842 662.044 116.926 663.798C116.933 663.947 116.927 664.608 116.882 664.688C116.257 665.772 108.775 667.392 107.166 668.122C105.031 669.09 102.968 670.31 101.362 672.039C99.4266 674.122 98.1703 676.836 98.2307 679.688C98.6553 680.28 98.6354 680.411 99.3645 680.7C104.046 682.553 104.56 678.022 106.688 675.32C107.793 673.914 109.344 672.737 111 672.063C113.75 670.944 117.357 671.022 120.073 672.183C121.341 672.724 122.285 673.573 122.773 674.882C123.46 676.725 123.291 678.538 122.443 680.296C120.974 683.343 117.779 685.232 114.709 686.334C110.67 687.784 106.241 688.151 102 688.596C96.0879 689.215 88.2141 690.498 82.6875 687.749C79.662 686.244 76.987 683.676 75.9605 680.4C74.9894 677.3 75.7415 673.5 77.2659 670.688C78.8113 667.837 81.9652 665.524 85.0799 664.735C86.5998 664.349 88.8171 664.261 90.1573 665.192C91.633 666.216 91.8892 667.291 92.197 669.011L92.2853 669.546L92.5335 669.106L92.9062 669.939L93.2471 669.345L93.9241 669.352Z"/>
	<path fill="#E13D46" transform="scale(0.666667 0.666667)" d="M113.057 678.562C114.321 678.463 114.39 678.468 115.472 679.125L115.599 679.875C115.176 681.052 114.719 681.607 113.812 682.458C112.617 682.689 112.356 682.91 111.256 682.312C111.24 681.819 111.212 681.51 111.289 681C111.478 679.746 112.155 679.286 113.057 678.562Z"/>
	<path fill="#FCE3C5" transform="scale(0.666667 0.666667)" d="M92.2853 669.546L92.5335 669.106L92.9062 669.939L93.2471 669.345L93.9241 669.352C93.5412 670.386 93.1075 671.458 92.4375 672.346C91.4734 673.623 89.3908 675.125 89.2638 676.77C89.146 678.297 89.2417 680.334 88.3647 681.562C87.0751 681.554 85.706 681.494 84.5625 680.821C83.5706 680.238 82.502 679.147 82.2172 678C81.8662 676.587 82.0813 674.624 82.9777 673.444C85.0413 670.725 89.2269 670.393 92.2853 669.546Z"/>
	<path fill="#FC6143" transform="scale(0.666667 0.666667)" d="M697.502 238.396C699.134 243.36 701.38 248.027 703.364 252.848C705.631 258.357 707.639 263.966 709.493 269.625C714.785 285.777 718.667 302.298 722.824 318.763C728.108 339.69 733.106 360.799 735.321 382.312C738.795 416.053 733.992 451.178 727.039 484.194C721.127 512.264 713.48 540.529 700.464 566.244C695.945 575.171 690.824 583.72 685.184 591.979C683.913 593.84 682.874 595.996 681.099 597.423C681.968 594.16 683.709 590.835 684.865 587.624C687.343 580.738 689.518 573.855 691.45 566.796C702.28 527.229 704.789 482.285 689.485 443.572C688.23 439.065 686.415 434.581 684.752 430.203C680.222 418.274 674.884 407.143 667.511 396.701C672.889 387.072 679.204 378.056 683.842 367.988C690.42 353.708 694.026 338.098 697.219 322.764C698.909 314.648 700.714 306.394 701.406 298.117C702.197 288.664 701.976 278.948 700.968 269.512C700.145 261.811 698.895 254.176 697.96 246.49C697.639 243.853 696.685 241 697.502 238.396Z"/>
	<path fill="#C24A6E" transform="scale(0.666667 0.666667)" d="M627.346 135.486L627.786 135.431C631.365 134.946 633.147 133.118 635.224 130.312C643.918 118.571 653.394 99.8468 669.197 97.4388C672.251 96.9735 675.075 97.2257 677.61 99.1674C681.461 102.115 684.148 106.774 686.572 110.889C694.422 124.213 699.317 138.18 703.532 153C706.125 162.12 708.518 171.543 709.559 180.982C710.466 189.204 709.959 197.158 707.309 205.009C705.085 211.595 701.233 217.526 699.041 224.062C697.499 228.66 696.962 233.577 697.502 238.396C696.685 241 697.639 243.853 697.96 246.49C698.895 254.176 700.145 261.811 700.968 269.512C701.976 278.948 702.197 288.664 701.406 298.117C700.714 306.394 698.909 314.648 697.219 322.764C694.026 338.098 690.42 353.708 683.842 367.988C679.204 378.056 672.889 387.072 667.511 396.701C674.884 407.143 680.222 418.274 684.752 430.203C686.415 434.581 688.23 439.065 689.485 443.572C689.876 446.595 691.886 452.969 690.268 455.513C687.394 457.056 683.295 456.78 680.119 456.81C677.189 445.319 673.564 434.035 669.302 422.967C667.015 417.028 663.202 410.868 661.967 404.652L661.871 404.141L658.703 408.247C658.171 408.166 657.498 408.196 657.07 407.842C655.766 406.762 654.54 403.968 653.639 402.488C647.351 392.157 640.149 382.138 632.321 372.913C623.628 362.669 611.963 356.032 603.746 345.378L604.257 344.062C603.597 341.444 599.854 337.733 598.214 335.486C595.59 331.894 593.124 328.236 590.714 324.5C584.796 313.095 577.899 302.284 572.063 290.856C566.307 279.585 561.825 267.511 557.687 255.564C556.317 251.609 553.987 246.746 553.678 242.624C553.586 241.487 551.621 238.458 551.024 237.244C547.298 229.667 543.719 222.019 539.785 214.547C540.988 211.851 539.917 207.332 540.212 204.253C541.593 189.852 547.76 173.863 557.203 162.748C567.68 150.415 582.101 142.946 597.774 139.352C607.528 137.116 617.406 136.331 627.346 135.486Z"/>
	<path fill="#0B68A2" transform="scale(0.666667 0.666667)" d="M553.678 242.624L667.511 396.701C674.884 407.143 680.222 418.274 684.752 430.203C686.415 434.581 688.23 439.065 689.485 443.572C689.876 446.595 691.886 452.969 690.268 455.513C687.394 457.056 683.295 456.78 680.119 456.81C677.189 445.319 673.564 434.035 669.302 422.967C667.015 417.028 663.202 410.868 661.967 404.652L661.871 404.141L658.703 408.247C658.171 408.166 657.498 408.196 657.07 407.842C655.766 406.762 654.54 403.968 653.639 402.488C647.351 392.157 640.149 382.138 632.321 372.913C623.628 362.669 611.963 356.032 603.746 345.378L604.257 344.062C603.597 341.444 599.854 337.733 598.214 335.486C595.59 331.894 593.124 328.236 590.714 324.5C584.796 313.095 577.899 302.284 572.063 290.856C566.307 279.585 561.825 267.511 557.687 255.564C556.317 251.609 553.987 246.746 553.678 242.624Z"/>
	<defs>
		<linearGradient id="gradient_0" gradientUnits="userSpaceOnUse" x1="387.18799" y1="420.18799" x2="395.63501" y2="735.203">
			<stop offset="0" stop-color="#01001E"/>
			<stop offset="1" stop-color="#001244"/>
		</linearGradient>
	</defs>
	<path fill="url(#gradient_0)" transform="scale(0.666667 0.666667)" d="M590.714 324.5C593.124 328.236 595.59 331.894 598.214 335.486C599.854 337.733 603.597 341.444 604.257 344.062L603.746 345.378C611.963 356.032 623.628 362.669 632.321 372.913C640.149 382.138 647.351 392.157 653.639 402.488C654.54 403.968 655.766 406.762 657.07 407.842C657.498 408.196 658.171 408.166 658.703 408.247L661.871 404.141L661.967 404.652C663.202 410.868 667.015 417.028 669.302 422.967C673.564 434.035 677.189 445.319 680.119 456.81C683.295 456.78 687.394 457.056 690.268 455.513C691.886 452.969 689.876 446.595 689.485 443.572C704.789 482.285 702.28 527.229 691.45 566.796C689.518 573.855 687.343 580.738 684.865 587.624C683.709 590.835 681.968 594.16 681.099 597.423C674.002 609.628 665.1 620.347 655.27 630.44C634.652 651.612 610.48 668.628 583.966 681.625C576.978 685.051 569.936 688.362 562.975 691.844C556.641 695.012 549.732 698.088 544.885 703.379C560.699 703.936 576.507 703.57 592.323 704.064C602.647 704.387 612.935 705.245 623.248 705.754C638.284 706.497 653.325 706.959 668.366 707.581C678.383 707.995 688.416 708.266 698.438 708.604C704.473 708.808 710.739 708.749 716.727 709.587C718.479 709.832 720.453 710.401 721.687 711.756C722.366 712.501 722.747 713.791 722.667 714.794C722.601 715.624 722.516 715.888 721.844 716.388C719.343 718.246 713.136 718.442 710.083 718.828C701.271 719.944 692.445 720.875 683.625 721.912C632.781 727.89 581.537 730.957 530.364 732.181C509.098 732.69 487.789 732.558 466.517 732.606C433.302 732.68 400.088 732.734 366.873 732.773C302.575 732.848 238.385 732.898 174.139 729.798C155.047 728.877 135.946 728.176 116.901 726.462C101.509 725.077 86.2384 722.898 70.9725 720.541C64.8198 719.591 58.6152 718.816 52.5 717.647C50.5764 717.279 45.8502 716.639 44.5983 714.953C43.6783 713.714 43.7946 712.516 44.0069 711.09C44.8634 709.635 45.8608 708.987 47.504 708.61C52.8197 707.392 59.0848 707.557 64.5513 707.346C75.8433 706.91 87.1468 706.704 98.4433 706.417C125.44 705.731 152.417 704.359 179.415 703.761C190.618 703.512 201.823 703.376 213.028 703.25C219.783 703.175 226.591 703.296 233.331 702.863C223.211 698.153 212.356 695.795 201.718 692.577C188.464 688.568 174.944 683.732 162.845 676.926C148.182 668.677 135.153 657.118 125.732 643.162C122.876 636.838 120.609 630.36 119.962 623.412C118.894 611.952 121.151 597.363 126.534 587.098C128.454 583.437 130.935 580.269 133.579 577.111L136.58 574.468C146.277 566.831 158.161 562.299 170.655 563.863C174.929 564.398 178.704 565.394 182.745 566.905C189.521 570.545 195.744 574.327 201.395 579.644C206.321 584.281 210.317 589.848 214.514 595.125C222.731 605.457 231.499 614.546 243.926 619.673C250.006 622.181 256.318 623.572 262.763 624.756L263.018 620.806C261.701 616.078 260.937 611.141 259.571 606.372C257.922 600.615 255.97 594.945 254.32 589.185C249.847 573.567 246.092 557.639 244.669 541.422C243.447 527.507 244.848 512.398 250.401 499.502C253.309 492.748 257.502 486.796 261.947 480.986C278.795 458.968 301.602 442.393 319.444 421.212C327.193 435.905 338.784 446.71 351.621 456.904L365.582 459.535C366.949 460.903 368.248 462.154 369.265 463.816L372.216 467.408L374.139 465.556L372 462.764L372.589 461.061C369.085 453.929 369.085 446.189 367.549 438.601C367.347 432.136 368.55 425.612 373.049 420.674C377.209 416.11 383.896 413.671 389.97 413.549C397.062 413.407 404.045 415.642 409.169 420.647C414.193 425.555 417.271 433.2 417.41 440.203C419.057 440.218 420.426 440.136 422.012 439.674L424.235 438.616L424.093 438.289C424.778 437.486 424.715 438.016 425.438 437.625C425.926 437.361 426.611 436.452 427.031 436.031C426.44 435.676 425.966 435.258 425.441 434.812C425.567 433.75 426.497 432.833 427.127 432.002L427.688 432C428.425 431.107 429.932 429.228 430.976 428.808C431.626 428.546 431.352 428.738 431.913 428.139L435.002 424.969C437.979 421.761 441.2 418.647 444.353 415.603C445.36 414.631 446.859 413.692 447.572 412.506L447.752 412.127C448.675 411.821 449.265 411.05 449.861 410.305L451.877 408.002L452.066 407.438C452.518 407.056 452.942 406.76 453.213 406.219C453.554 405.536 453.166 406.147 453.659 405.41L453.941 405L454.312 404.441L454.875 404.812C454.715 403.836 454.696 403.677 455.059 402.764L455.522 403.002C456.962 400.383 457.389 396.984 458.458 394.181C458.696 393.558 459.073 392.3 459.471 391.835C459.727 391.535 461.109 391.097 461.479 390.958C465.81 389.327 470.717 388.522 475.218 387.433C482.182 385.748 489.122 383.876 495.973 381.776C516.544 375.469 535.959 366.656 554.689 356.106C559.239 353.543 563.53 350.631 568.023 347.999L579.295 338.636C579.395 338.114 582.114 335.645 582.622 335.109C585.803 331.752 588.275 328.415 590.714 324.5Z"/>
	<path fill="#EFB48E" transform="scale(0.666667 0.666667)" d="M411.148 450.209C411.594 451.327 412.105 452.004 412.912 452.89L413.934 453.091L413.989 453.275C412.189 454.821 410.829 456.737 408.938 458.258L408.366 458.062C408.376 455.62 410.2 452.49 411.148 450.209Z"/>
	<path fill="#0B68A2" transform="scale(0.666667 0.666667)" d="M323.672 561.355C327.756 555.882 331.629 549.527 336.616 544.869L326.355 565.89C326.413 565.065 326.403 564.141 326.627 563.344L326.816 562.875C325.676 561.675 325.239 561.553 323.672 561.355Z"/>
	<path fill="#FF6F49" transform="scale(0.666667 0.666667)" d="M383.881 469.102L384.362 469.431C385.536 469.932 387.977 469.633 388.738 470.132L388.312 470.467L389.524 471.094C389.74 473.341 388.164 475.585 386.764 477.297C385.776 478.504 384.563 479.61 383.38 480.619C381.716 478.251 380.307 475.79 378.903 473.264C378.529 472.591 377.613 471.333 377.463 470.624C379.615 469.742 381.876 469.976 383.881 469.102Z"/>
	<path fill="#0B68A2" transform="scale(0.666667 0.666667)" d="M472.216 568.137C471.577 567.637 470.78 566.098 470.291 565.391C468.514 562.818 466.808 560.196 465.03 557.625C461.437 552.433 457.632 547.404 454.089 542.173C452.268 539.485 450.279 536.906 449.084 533.87C452.523 537.231 455.502 541.103 458.498 544.858C463.303 550.877 467.988 557.029 472.645 563.164L471.949 563.259C472.498 563.81 472.742 563.865 472.877 564.656L473.322 565.095C473.925 565.699 473.696 565.443 474.188 566.066L473.627 566.252L473.398 566.662C473.057 567.23 472.665 567.657 472.216 568.137Z"/>
	<path fill="#21559F" transform="scale(0.666667 0.666667)" d="M348.852 550.329L363.445 523.446C362.648 530.167 360.156 537.21 358.546 543.826C357.905 546.463 357.522 550.453 356.423 552.828L355.886 552.966L355.5 553.5C354.761 553.751 354.736 553.638 353.998 553.502C353.294 553.372 353.116 553.381 352.5 552.941C351.291 552.079 350.162 552.104 348.844 551.531L349.405 550.788L348.852 550.329Z"/>
	<defs>
		<linearGradient id="gradient_1" gradientUnits="userSpaceOnUse" x1="422.43799" y1="446.06201" x2="403.513" y2="459.659">
			<stop offset="0" stop-color="#FF714D"/>
			<stop offset="1" stop-color="#EE998B"/>
		</linearGradient>
	</defs>
	<path fill="url(#gradient_1)" transform="scale(0.666667 0.666667)" d="M416.484 447.34C418.703 446.694 419.821 444.822 422.261 444.345L423.556 446.608C422.817 448.071 422.881 449.384 422.495 450.938C422.142 452.355 421.551 453.666 420.938 454.985C420.388 456.164 419.7 456.885 419.974 458.192C418.802 458.506 417.567 459.707 416.625 460.479C412.87 463.556 409.75 467.272 405.899 470.257C405.992 469.299 406.848 468.107 407.301 467.252C409.154 463.756 411.268 460.443 413.007 456.88C413.314 456.25 414.115 454.997 414.22 454.353C414.279 453.99 414.066 453.634 413.989 453.275L413.934 453.091C415.293 451.767 415.928 449.148 416.484 447.34Z"/>
	<defs>
		<linearGradient id="gradient_2" gradientUnits="userSpaceOnUse" x1="496.68799" y1="595.68799" x2="501.04999" y2="590.89697">
			<stop offset="0" stop-color="#996C70"/>
			<stop offset="1" stop-color="#656E86"/>
		</linearGradient>
	</defs>
	<path fill="url(#gradient_2)" transform="scale(0.666667 0.666667)" d="M472.216 568.137C472.665 567.657 473.057 567.23 473.398 566.662L473.627 566.252L474.188 566.066C473.696 565.443 473.925 565.699 473.322 565.095L472.877 564.656C472.742 563.865 472.498 563.81 471.949 563.259L472.645 563.164C477.449 568.91 482.16 574.818 487.234 580.326C493.668 587.31 500.661 593.824 507.584 600.32C514.286 606.609 520.927 613.204 527.959 619.112C531.653 622.215 535.552 624.897 539.362 627.83L539.23 628.273C534.725 626.055 530.711 622.463 526.543 619.65C514.351 611.425 502.782 602.905 492.322 592.497C484.795 585.008 478.295 576.825 472.216 568.137Z"/>
	<path fill="#6A4C91" transform="scale(0.666667 0.666667)" d="M348.852 550.329L349.405 550.788L348.844 551.531C350.162 552.104 351.291 552.079 352.5 552.941C353.116 553.381 353.294 553.372 353.998 553.502C354.736 553.638 354.761 553.751 355.5 553.5L355.886 552.966L356.423 552.828C354.472 562.915 352.152 572.895 349.724 582.876C348.717 587.015 347.909 592.295 346.027 596.06L345.89 595.242C346.167 594.44 346.176 594.741 346.048 593.958L345.941 593.438L346.406 593.156L346.316 592.312L346.781 592.031L346.691 591C347.34 590.346 347.157 590.366 347.158 589.5L346.877 589.123L346.691 588.562L345.375 588.559C343.711 587.453 341.252 588.658 339.225 587.037L338.816 586.688L338.25 586.875L338.812 588C339.051 588.621 339.511 589.27 339.656 589.852L339.75 590.25C340.037 590.971 340.312 591.116 340.312 591.934L339.562 591.774C337.91 588.028 333.932 582.232 334.022 578.217C334.04 577.418 334.035 576.941 333.651 576.219L333.294 575.593L348.852 550.329Z"/>
	<defs>
		<linearGradient id="gradient_3" gradientUnits="userSpaceOnUse" x1="288.93799" y1="609.93799" x2="278.17801" y2="595.021">
			<stop offset="0" stop-color="#A64172"/>
			<stop offset="1" stop-color="#7B4987"/>
		</linearGradient>
	</defs>
	<path fill="url(#gradient_3)" transform="scale(0.666667 0.666667)" d="M323.672 561.355C325.239 561.553 325.676 561.675 326.816 562.875L326.627 563.344C326.403 564.141 326.413 565.065 326.355 565.89C321.753 574.837 316.573 583.903 310.154 591.692C301.905 601.703 290.763 610.405 279.627 617.001C275.13 619.665 270.265 622.682 265.312 624.409C264.436 624.715 263.677 624.953 262.763 624.756L263.018 620.806C263.122 621.75 263.103 622.677 263.101 623.625L263.625 624.068C269.176 621.752 274.418 614.685 278.374 610.195C281.962 606.122 285.593 602.058 289.332 598.123C294.64 592.539 300.372 587.366 305.757 581.856C312.12 575.344 318.029 568.493 323.672 561.355Z"/>
	<path fill="#65728A" transform="scale(0.666667 0.666667)" d="M307.653 460.281C316.031 459.668 324.48 460.412 332.733 461.881C334.666 462.226 337.06 462.401 338.812 463.281C336.748 464.047 333.87 463.674 331.702 463.583C326.958 463.383 322.269 463.065 317.513 463.122C311.955 463.19 306.167 463.668 300.75 464.963L298.176 465.614C282.767 470.145 269.395 482.647 261.881 496.635C254.882 509.665 249.557 527.793 251.383 542.684C252.136 548.818 254.026 554.769 255.807 560.664L259.416 579.226C259.697 581.223 260.379 584.305 259.114 585.977L258.412 585.562C256.405 580.637 255.834 574.317 254.655 569.062C252.332 558.704 249.249 548.682 248.206 538.078C246.156 517.238 252.993 497.133 266.3 481.144C277.01 468.277 291.213 461.757 307.653 460.281Z"/>
	<path fill="#FC6143" transform="scale(0.666667 0.666667)" d="M428.545 461.075C428.813 462.188 429.022 463.297 429.478 464.35C430.409 469.418 431.112 474.566 432.322 479.572C435.299 491.888 439.558 503.518 443.635 515.466C434.137 512.586 425.105 508.776 419.055 500.505C415.16 495.182 412.854 488.012 415.731 481.695C417.731 477.305 420.974 473.485 423.141 469.128C424.158 467.085 425.33 464.644 425.591 462.352L425.654 461.612L428.545 461.075Z"/>
	<defs>
		<linearGradient id="gradient_4" gradientUnits="userSpaceOnUse" x1="413.81201" y1="452.06201" x2="386.45001" y2="411.89999">
			<stop offset="0" stop-color="#FFC998"/>
			<stop offset="1" stop-color="#FFE9C6"/>
		</linearGradient>
	</defs>
	<path fill="url(#gradient_4)" transform="scale(0.666667 0.666667)" d="M367.549 438.601C367.347 432.136 368.55 425.612 373.049 420.674C377.209 416.11 383.896 413.671 389.97 413.549C397.062 413.407 404.045 415.642 409.169 420.647C414.193 425.555 417.271 433.2 417.41 440.203C419.057 440.218 420.426 440.136 422.012 439.674C422.293 440.723 422.615 441.71 422.564 442.809L422.261 444.345C419.821 444.822 418.703 446.694 416.484 447.34C415.928 449.148 415.293 451.767 413.934 453.091L412.912 452.89C412.105 452.004 411.594 451.327 411.148 450.209C411.712 448.487 412.243 446.82 412.5 445.018L412.587 444.375C413.095 440.739 413.052 437.264 412.033 433.72C410.511 428.429 407.311 424.064 402.433 421.45C397.158 418.622 390.933 417.575 385.146 419.345C380.787 420.679 376.579 423.462 374.418 427.572L374.622 427.917C374.911 428.554 374.811 428.419 374.761 429.177C374.705 430.051 374.799 430.305 375.188 431.066L375.864 431.048C376.586 431.034 377.156 431.139 377.847 431.339C375.889 433.253 374.32 434.668 374.31 437.625C374.282 446.084 381.058 451.577 384.894 458.239C386.09 460.316 387.908 466.287 386.062 468.196L384.362 469.431L383.881 469.102C381.876 469.976 379.615 469.742 377.463 470.624L374.139 465.556L372 462.764L372.589 461.061C369.085 453.929 369.085 446.189 367.549 438.601Z"/>
	<path fill="#FF6F49" transform="scale(0.666667 0.666667)" d="M417.41 440.203C419.057 440.218 420.426 440.136 422.012 439.674C422.293 440.723 422.615 441.71 422.564 442.809L422.261 444.345C419.821 444.822 418.703 446.694 416.484 447.34C416.831 445.051 416.718 442.379 417.41 440.203Z"/>
	<path fill="#EFB48E" transform="scale(0.666667 0.666667)" d="M372.589 461.061C373.503 462.213 374.244 462.984 375.562 463.691L375.674 464.03C375.892 464.609 375.823 464.415 376.309 465L375.934 465.562C376.117 466.109 376.331 466.555 376.594 467.064C377.327 467.066 377.291 466.949 377.906 467.439L378.375 467.066C379.241 467.063 379.091 467.094 379.875 466.691C380.271 466.488 380.761 466.503 381.191 466.5L380.814 465.668C380.54 465.119 380.647 465.352 380.438 464.625L380.076 464.279C379.45 463.65 379.874 464.141 379.502 463.406L379.246 462.996C378.915 462.393 378.923 461.949 378.9 461.282L383.881 469.102C381.876 469.976 379.615 469.742 377.463 470.624L374.139 465.556L372 462.764L372.589 461.061Z"/>
	<path fill="#000006" transform="scale(0.666667 0.666667)" d="M374.418 427.572L374.622 427.917C374.911 428.554 374.811 428.419 374.761 429.177C374.705 430.051 374.799 430.305 375.188 431.066L375.864 431.048C376.586 431.034 377.156 431.139 377.847 431.339C375.889 433.253 374.32 434.668 374.31 437.625C374.282 446.084 381.058 451.577 384.894 458.239C386.09 460.316 387.908 466.287 386.062 468.196L384.362 469.431L383.881 469.102L378.9 461.282C378.201 459.62 376.857 458.13 375.941 456.562C374.302 453.758 373.505 450.303 372.737 447.17C371.117 440.556 370.738 433.624 374.418 427.572Z"/>
	<path fill="#FF6F49" transform="scale(0.666667 0.666667)" d="M319.88 696.91C329.502 695.971 348.657 697.824 356.517 703.444L354.979 706.388C351.242 712.795 343.912 716.486 337.033 718.335L333.551 719.005C324.933 720.357 314.79 719.077 307.638 713.745C304.634 711.504 300.852 707.644 300.438 703.776C300.344 702.897 300.456 702.114 301.051 701.438C301.908 700.466 303.312 699.917 304.5 699.438C309.347 697.485 314.728 697.279 319.88 696.91Z"/>
	<path fill="#0B68A2" transform="scale(0.666667 0.666667)" d="M513.436 480.062L514.688 478.684L515.814 478.781L515.719 479.248L516.375 479.625L516.469 480.565L517.038 480.285L517.532 480.408L517.529 480.813C517.537 481.914 517.603 482.897 518.111 483.891C519.635 486.877 521.874 489.774 523.74 492.573C527.697 498.512 531.77 504.515 535.155 510.802C540.955 521.571 546.364 533.856 547.368 546.179C548.175 556.094 545.977 566.541 544.715 576.363C544.121 580.988 543.593 585.614 543.087 590.25C542.72 593.605 542.504 597.925 540.822 600.914C539.984 596.685 540.63 592.202 540.757 587.919C540.896 583.239 540.877 578.484 540.676 573.805C540.004 558.226 537.622 541.679 532.051 527.062C528.943 518.91 524.502 511.468 520.063 504C517.428 499.568 514.966 494.989 512.121 490.69L507.845 485.007L508.875 484.691C509.416 483.881 509.354 483.211 509.759 482.372C510.224 481.408 510.959 480.574 511.435 479.596L511.688 479.066L511.875 479.812L513.436 480.062Z"/>
	<path fill="#21559F" transform="scale(0.666667 0.666667)" d="M507.845 485.007L508.875 484.691C509.416 483.881 509.354 483.211 509.759 482.372C510.224 481.408 510.959 480.574 511.435 479.596L511.688 479.066L511.875 479.812L513.436 480.062C512.341 481.262 513.255 482.143 512.434 483.375C512.435 484.212 512.205 485.015 512.809 485.625L512.615 485.968C512.184 487.046 512.49 488.744 512.208 490.036L512.121 490.69L507.845 485.007Z"/>
	<defs>
		<linearGradient id="gradient_5" gradientUnits="userSpaceOnUse" x1="485.81201" y1="447.56201" x2="495.25101" y2="487.918">
			<stop offset="0" stop-color="#913D81"/>
			<stop offset="1" stop-color="#624E99"/>
		</linearGradient>
	</defs>
	<path fill="url(#gradient_5)" transform="scale(0.666667 0.666667)" d="M487.509 445.106C487.873 446.706 489.243 447.84 490.369 448.951C492.84 451.39 495.407 453.729 497.924 456.121C504.079 461.973 510.44 468.199 514.891 475.5C515.803 476.996 517.063 478.723 517.532 480.408L517.038 480.285L516.469 480.565L516.375 479.625L515.719 479.248L515.814 478.781L514.688 478.684L513.436 480.062L511.875 479.812L511.688 479.066L511.435 479.596C510.959 480.574 510.224 481.408 509.759 482.372C509.354 483.211 509.416 483.881 508.875 484.691L507.845 485.007C496.491 473.385 481.7 470.205 466.43 467.016C458.709 465.403 450.959 463.872 443.112 463.025L443.091 462.684C443.785 461.792 445.905 461.218 447 460.797C452.427 458.707 457.983 457.144 463.669 455.933C468.049 455 473.103 454.481 477.201 452.72C481.121 451.036 484.156 447.653 487.509 445.106Z"/>
	<path fill="#F6E4CF" transform="scale(0.666667 0.666667)" d="M377.847 431.339C383.493 427.4 390.081 423.663 397.211 424.884C401.118 425.553 405.296 427.757 407.645 431.036C410.658 435.242 411.007 440.481 410.034 445.413C407.679 457.355 400.657 462.729 390.926 469.176C390.209 469.652 389.557 469.893 388.738 470.132C387.977 469.633 385.536 469.932 384.362 469.431L386.062 468.196C387.908 466.287 386.09 460.316 384.894 458.239C381.058 451.577 374.282 446.084 374.31 437.625C374.32 434.668 375.889 433.253 377.847 431.339Z"/>
	<path fill="#010936" transform="scale(0.666667 0.666667)" d="M392.915 429.506C394.967 429.313 397.142 429.173 399.188 429.52C401.347 429.887 403.104 430.83 404.387 432.622C406.943 436.19 406.61 441.763 405.864 445.874C404.235 454.839 398.437 461.146 391.089 466.175C390.642 466.3 390.271 466.352 389.812 466.398C389.197 463.095 389.25 460.152 387.86 456.957C385.412 451.326 379.945 447.264 378.473 441.146C378.007 439.208 377.899 437.053 379.066 435.323C381.766 431.322 388.517 430.142 392.915 429.506Z"/>
	<path fill="#FF6F49" transform="scale(0.666667 0.666667)" d="M439.324 703.064C439.981 702.036 441.221 701.304 442.292 700.773C456.298 693.823 475.663 694.522 490.241 699.256C492.301 700.242 493.947 701.196 495.718 702.663C496.784 704.863 497.072 705.832 496.322 708.154C494.745 713.041 490.64 716.521 486.158 718.7C478.15 722.593 466.683 722.896 458.32 719.896C451.162 717.329 443.249 711.203 439.745 704.357C439.527 703.932 439.43 703.526 439.324 703.064Z"/>
	<path fill="#FF6F49" transform="scale(0.666667 0.666667)" d="M351.621 456.904L365.582 459.535C366.949 460.903 368.248 462.154 369.265 463.816L372.216 467.408C374.006 470.495 375.744 473.522 376.62 477.011C376.721 477.987 376.953 478.064 376.312 478.869C374.261 479.46 371.812 478.131 369.75 477.8C366.84 477.333 363.501 477.652 360.531 477.627C358.697 477.612 356.567 477.233 354.815 477.811C355.235 479.277 355.779 479.823 357.107 480.619L362.724 483.266C363.216 485.364 363.692 487.475 364.642 489.421C365.863 491.919 367.601 494.166 368.725 496.7C362.538 505.746 350.541 513.662 340.175 516.98L340.012 516.594L339.226 514.615C338.302 511.825 338.029 508.97 337.736 506.062C336.601 494.799 338.28 480.951 341.85 470.244C342.786 467.437 344.327 464.754 345.683 462.127C347.35 460.171 349.409 458.223 351.621 456.904Z"/>
	<path fill="#E88786" transform="scale(0.666667 0.666667)" d="M369.265 463.816L372.216 467.408C374.006 470.495 375.744 473.522 376.62 477.011C376.245 477.572 376.506 477.312 375.75 477.694C372.095 476.77 369.347 475.531 366.221 473.438C363.876 471.868 361.801 469.929 359.689 468.066L361.168 468.069L361.5 468.375L361.875 468.566C362.04 468.812 362.336 469.328 362.623 469.502L363.187 469.691C363.784 470.374 364.383 470.963 365.059 471.562C365.709 471.563 367.127 471.757 367.687 471.566C368.236 471.38 368.801 470.525 369.377 470.252L369.938 470.066C370.688 469.68 371.415 468.592 371.625 467.812L370.877 467.156C369.997 465.883 371.537 467.555 370.314 466.219L369.377 465.281C369.201 465.025 369.123 464.709 368.935 464.462L368.702 464.17L369.265 463.816Z"/>
	<path fill="#21559F" transform="scale(0.666667 0.666667)" d="M354.815 477.811C354.879 474.942 356.883 469.648 358.676 467.438L359.689 468.066C361.801 469.929 363.876 471.868 366.221 473.438C369.347 475.531 372.095 476.77 375.75 477.694C376.506 477.312 376.245 477.572 376.62 477.011C376.721 477.987 376.953 478.064 376.312 478.869C374.261 479.46 371.812 478.131 369.75 477.8C366.84 477.333 363.501 477.652 360.531 477.627C358.697 477.612 356.567 477.233 354.815 477.811Z"/>
	<path fill="#0B68A2" transform="scale(0.666667 0.666667)" d="M340.175 516.98C339.646 517.362 339.828 517.293 339.238 517.49C330.125 520.54 319.603 519.227 310.5 516.77C307.275 515.899 304.024 514.997 301.014 513.523C297.832 511.964 294.772 509.811 293.677 506.26C292.719 503.149 294.005 499.817 295.486 497.079C297.749 492.893 301.098 489.17 304.446 485.834C312.653 477.656 322.113 471.942 332.625 467.269C336.998 465.326 341.08 463.48 345.683 462.127C344.327 464.754 342.786 467.437 341.85 470.244C338.28 480.951 336.601 494.799 337.736 506.062C338.029 508.97 338.302 511.825 339.226 514.615L340.012 516.594L340.175 516.98Z"/>
	<defs>
		<linearGradient id="gradient_6" gradientUnits="userSpaceOnUse" x1="346.68799" y1="588.56201" x2="282.742" y2="624.34003">
			<stop offset="0" stop-color="#2668AA"/>
			<stop offset="1" stop-color="#0B7BB3"/>
		</linearGradient>
	</defs>
	<path fill="url(#gradient_6)" transform="scale(0.666667 0.666667)" d="M333.294 575.593L333.651 576.219C334.035 576.941 334.04 577.418 334.022 578.217C333.932 582.232 337.91 588.028 339.562 591.774L340.312 591.934C340.312 591.116 340.037 590.971 339.75 590.25L339.656 589.852C339.511 589.27 339.051 588.621 338.812 588L338.25 586.875L338.816 586.688L339.225 587.037C341.252 588.658 343.711 587.453 345.375 588.559L346.691 588.562L346.877 589.123L347.158 589.5C347.157 590.366 347.34 590.346 346.691 591L346.781 592.031L346.316 592.312L346.406 593.156L345.941 593.438L346.048 593.958C346.176 594.741 346.167 594.44 345.89 595.242L346.027 596.06C345.408 599.484 343.697 602.93 342.369 606.15C334.871 624.332 323.101 640.723 307.12 652.381L307.18 651.196C307.703 650.994 308.134 650.868 308.52 650.442L309.377 649.502C310.526 648.716 311.22 648.127 312.188 647.066L311.816 646.5L311.533 645.75C310.904 644.791 311.066 644.462 311.066 643.312C310.435 642.681 310.691 640.876 310.691 639.938C310.152 639.398 310.316 639.349 310.316 638.625L309.752 637.781C309.377 637.062 309.792 637.533 309.296 637.036L309.002 636.748C308.387 635.967 307.712 635.262 306.752 634.873C306.244 634.668 306.097 634.765 305.614 634.403C304.969 633.92 304.486 633.949 303.752 633.748C303.251 633.611 302.749 633.509 302.252 633.373C301.747 633.235 301.283 633.044 300.752 632.998L300.281 632.998C299.745 632.644 298.775 632.81 298.125 632.809L297.656 632.436C296.971 632.981 296.723 632.809 295.875 632.809C294.847 631.791 289.748 632.79 288.002 632.248L287.438 632.059C286.944 632.605 286.52 632.953 286.369 633.692L286.309 634.125C286.228 634.31 285.804 634.793 285.75 635.062C285.581 635.902 285.709 636.711 285.184 637.5L284.719 638.061C284.816 638.748 284.825 639.105 284.577 639.758L283.978 639.598C284.581 635.03 286.493 630.48 289.208 626.778C294.003 620.238 301.385 614.988 307.141 609.27C317.437 599.045 325.561 587.804 333.294 575.593Z"/>
	<path fill="#A93E75" transform="scale(0.666667 0.666667)" d="M155.757 579.562L157.125 579.27L157.516 579.75L156.197 584.958C154.486 594.329 156.28 602.697 161.698 610.483C166.217 616.978 172.252 622.404 178.595 627.075C197.058 640.671 218.694 647.145 240.996 651.052C238.946 655.834 238.43 661.079 236.793 665.965L228.137 663.819C208.643 659.429 189.091 652.92 172.048 642.251C159.332 634.291 143.689 622.544 140.279 606.959L140.155 606.375C138.886 600.713 139.705 595.643 142.388 590.498C145.219 585.065 149.952 581.362 155.757 579.562Z"/>
	<defs>
		<linearGradient id="gradient_7" gradientUnits="userSpaceOnUse" x1="250.312" y1="635.81201" x2="159.367" y2="585.31897">
			<stop offset="0" stop-color="#1E6EAB"/>
			<stop offset="1" stop-color="#0087BC"/>
		</linearGradient>
	</defs>
	<path fill="url(#gradient_7)" transform="scale(0.666667 0.666667)" d="M169.741 573.807C172.275 573.59 175.187 573.5 177.687 573.946C195.235 577.076 206.631 592.544 216.294 606.071C224.673 617.801 237.248 632.513 252.144 634.999C250.331 636.965 248.555 638.989 246.938 641.118C245.81 642.603 244.027 646.218 242.621 647.212C242.357 647.398 241.994 647.362 241.681 647.438C237.623 646.904 233.565 645.934 229.558 645.1C216.332 642.346 204.212 638.574 192.181 632.381C179.543 625.876 164.455 614.579 160.06 600.344C157.976 593.593 158.054 586.231 161.514 579.938C163.515 576.298 165.936 574.903 169.741 573.807Z"/>
	<path fill="#0B68A2" transform="scale(0.666667 0.666667)" d="M429.478 464.35C433.549 463.415 439.05 461.698 442.929 463.643C452.71 467.543 462.771 470.783 472.437 474.971C479.769 478.148 486.697 481.909 493.465 486.154C499.618 490.014 505.764 494.4 510.562 499.905C516.543 506.765 521.042 514.813 525.468 522.72C511.947 526.702 499.018 527.073 485.046 525.788C474.139 524.784 463.844 522.863 453.472 519.228C450.274 518.108 446.742 517.031 443.709 515.529L443.635 515.466C439.558 503.518 435.299 491.888 432.322 479.572C431.112 474.566 430.409 469.418 429.478 464.35Z"/>
	<path fill="#6A4C91" transform="scale(0.666667 0.666667)" d="M367.444 521.808C368.737 516.593 370.577 508.155 375.334 505.212C377.128 504.102 378.963 503.279 380.563 501.863C387.069 496.105 390.637 485.567 392.678 477.375L393.011 475.903C395.076 477.514 396.689 478.508 397.525 481.125C399.212 486.403 400.466 493.247 403.692 497.812C405.823 500.828 408.859 502.242 411.643 504.482C414.067 506.433 416.278 509.188 417.818 511.875C419.757 515.259 421.189 518.928 422.084 522.724C422.519 524.571 422.617 526.559 423.201 528.354L424.015 528.188C424.535 528.874 424.838 529.514 425.257 530.248C425.314 530.348 425.764 531.086 425.918 531.15C426.144 531.225 426.41 531.227 426.596 531.375C426.979 531.68 427.704 533.45 427.972 533.96C429.631 537.12 431.182 540.332 432.913 543.457C438.154 552.918 444.272 561.885 449.122 571.558C454.211 581.707 458.077 593.048 465.337 601.885C470.535 608.21 476.864 613.766 482.957 619.21C486.865 622.702 490.928 626.044 494.511 629.88C495.789 631.249 497.35 632.703 498.27 634.322C501.028 637.067 503.318 640.817 505.216 644.201C506.825 647.069 508.696 653.212 511.312 654.915C512.635 654.774 513.263 654.593 514.394 653.895C514.685 652.691 514.519 651.645 514.373 650.438C515.602 649.296 528.223 649.839 530.496 649.924C536.032 650.129 541.564 650.643 547.085 651.101C550.004 651.343 553.581 651.258 556.312 652.281C557.803 654.101 558.28 656.511 557.965 658.851C557.811 660.001 553.847 662.739 552.782 663.451C547.958 666.678 542.715 669.228 537.505 671.76C534.551 673.195 531.378 674.512 528.66 676.352L528.793 677.032C529.72 681.873 529.206 689.205 526.395 693.399C524.421 696.346 521.376 698.02 518.062 699.033L517.513 699.205C510.735 701.234 504.211 700.164 497.643 698.097L496.309 699.375L496.49 699.844C496.628 700.581 496.065 702.02 495.718 702.663C493.947 701.196 492.301 700.242 490.241 699.256C475.663 694.522 456.298 693.823 442.292 700.773C441.221 701.304 439.981 702.036 439.324 703.064C438.799 702.796 439.079 702.992 438.566 702.375L438.752 701.719L439.219 701.906L439.689 701.531L439.316 700.875L439.875 700.5L440.252 699.844L440.816 699.75C440.09 699.147 440.471 699.39 439.688 699C439.541 699.588 439.636 699.648 439.127 700.031L438.939 699.469C437.941 699.564 437.698 699.398 436.785 699.047C413.022 704.39 386.707 703.514 362.753 699.56C353.893 698.097 345.156 695.727 336.222 694.739C330.362 694.09 324.256 694.213 318.375 694.469C313.107 694.699 307.701 695.521 302.552 696.636C293.841 698.524 285.112 701.764 276.149 702.081C273.962 702.159 271.727 702.23 269.638 701.484C265.894 700.147 263.67 697.359 261.979 693.878C259.428 688.627 256.972 680.822 257.687 675C257.905 673.227 258.549 671.458 259.126 669.774C253.064 669.811 247.22 669.732 241.225 668.653C241.527 662.798 242.554 656.995 243.98 651.314L282.227 650.14C282.679 646.64 283.059 643.008 283.978 639.598L284.577 639.758C284.825 639.105 284.816 638.748 284.719 638.061L285.184 637.5C285.709 636.711 285.581 635.902 285.75 635.062C285.804 634.793 286.228 634.31 286.309 634.125L286.369 633.692C286.52 632.953 286.944 632.605 287.438 632.059L288.002 632.248C289.748 632.79 294.847 631.791 295.875 632.809C296.723 632.809 296.971 632.981 297.656 632.436L298.125 632.809C298.775 632.81 299.745 632.644 300.281 632.998L300.752 632.998C301.283 633.044 301.747 633.235 302.252 633.373C302.749 633.509 303.251 633.611 303.752 633.748C304.486 633.949 304.969 633.92 305.614 634.403C306.097 634.765 306.244 634.668 306.752 634.873C307.712 635.262 308.387 635.967 309.002 636.748L309.296 637.036C309.792 637.533 309.377 637.062 309.752 637.781L310.316 638.625C310.316 639.349 310.152 639.398 310.691 639.938C310.691 640.876 310.435 642.681 311.066 643.312C311.066 644.462 310.904 644.791 311.533 645.75L311.816 646.5L312.188 647.066C311.22 648.127 310.526 648.716 309.377 649.502L308.52 650.442C308.134 650.868 307.703 650.994 307.18 651.196L307.12 652.381C305.125 654.236 302.712 655.789 300.509 657.399C309.361 654.995 316.233 649.533 322.998 643.585C328.955 637.996 333.811 630.677 337.756 623.55C350.44 600.638 355.243 575.348 360.742 550.047C360.568 548.998 361.315 546.758 361.539 545.638C363.15 537.577 365.297 529.735 367.444 521.808Z"/>
	<path fill="#010936" transform="scale(0.666667 0.666667)" d="M490.706 696.142L497.643 698.097L496.309 699.375L496.49 699.844C496.628 700.581 496.065 702.02 495.718 702.663C493.947 701.196 492.301 700.242 490.241 699.256C490.909 698.899 490.582 699.106 491.216 698.625L490.706 696.142Z"/>
	<path fill="#000006" transform="scale(0.666667 0.666667)" d="M436.785 699.047C441.614 697.917 446.318 696.335 451.156 695.248C464.64 692.219 477.328 693.343 490.706 696.142L491.216 698.625C490.582 699.106 490.909 698.899 490.241 699.256C475.663 694.522 456.298 693.823 442.292 700.773C441.221 701.304 439.981 702.036 439.324 703.064C438.799 702.796 439.079 702.992 438.566 702.375L438.752 701.719L439.219 701.906L439.689 701.531L439.316 700.875L439.875 700.5L440.252 699.844L440.816 699.75C440.09 699.147 440.471 699.39 439.688 699C439.541 699.588 439.636 699.648 439.127 700.031L438.939 699.469C437.941 699.564 437.698 699.398 436.785 699.047Z"/>
	<path fill="#000006" transform="scale(0.666667 0.666667)" d="M391.315 521.921L391.85 520.688L392.812 520.528L393.826 521.589L393.758 522.178C393.127 527.862 393.406 533.654 393.098 539.366C392.337 553.485 391.255 567.783 391.552 581.918C391.664 587.216 392.1 592.522 392.397 597.813C392.53 600.18 393.278 604.146 391.904 606.129L391.197 605.812C386.565 585.73 387.922 565.15 389.394 544.81C389.943 537.224 390.31 529.456 391.315 521.921Z"/>
	<defs>
		<linearGradient id="gradient_8" gradientUnits="userSpaceOnUse" x1="349.68799" y1="603.93799" x2="341.83401" y2="601.03699">
			<stop offset="0" stop-color="#FF6749"/>
			<stop offset="1" stop-color="#D84457"/>
		</linearGradient>
	</defs>
	<path fill="url(#gradient_8)" transform="scale(0.666667 0.666667)" d="M360.742 550.047C361.06 550.562 361.511 551.17 361.565 551.796C361.745 553.89 360.983 556.8 360.674 558.897C359.305 568.202 357.435 577.545 355.278 586.697C351.805 601.438 346.618 615.498 338.725 628.464C334.889 634.764 331.081 640.19 325.312 644.844C324.172 644.661 323.88 644.3 322.998 643.585C328.955 637.996 333.811 630.677 337.756 623.55C350.44 600.638 355.243 575.348 360.742 550.047Z"/>
	<path fill="#0D2D8D" transform="scale(0.666667 0.666667)" d="M367.444 521.808C368.737 516.593 370.577 508.155 375.334 505.212C377.128 504.102 378.963 503.279 380.563 501.863C387.069 496.105 390.637 485.567 392.678 477.375L393.011 475.903C395.076 477.514 396.689 478.508 397.525 481.125C399.212 486.403 400.466 493.247 403.692 497.812C405.823 500.828 408.859 502.242 411.643 504.482C414.067 506.433 416.278 509.188 417.818 511.875C419.757 515.259 421.189 518.928 422.084 522.724C422.519 524.571 422.617 526.559 423.201 528.354L425.628 543.483L424.5 541.213C424.189 540.708 424.316 540.213 424.316 539.625L423.941 539.062C424.016 538.216 424.032 537.47 423.941 536.625C423.468 535.916 423.566 535.922 423.566 535.125L423.191 534.562C423.203 533.86 423.236 533.226 423.097 532.534L423.002 532.123L423 531.562C422.786 530.503 422.468 529.909 422.445 528.739C422.433 528.141 422.519 528.492 422.066 527.812L421.686 528.094C421.166 528.526 420.757 528.929 420.188 529.309C419.535 529.251 419.302 529.265 418.698 529.567C418.121 529.856 417.63 530.091 416.998 530.248C416.404 530.396 415.684 530.714 415.125 530.812C414.373 530.946 414.308 530.966 413.623 531.373C412.874 531.376 412.333 531.508 411.785 532.053L411.562 532.309L411 531.75L410.438 532.309L409.875 531.75L409.312 532.309L408.75 531.75L408.188 532.309L407.625 531.75L407.062 532.309L406.5 531.75C405.151 533.09 401.855 531.804 399.878 532.79L399.375 533.059L398.438 532.5L398.25 533.062C398.797 534.339 398.206 535.453 399.184 536.438L399 537.188C399.382 538.08 399.128 538.629 399.375 539.438C399.761 540.701 399.629 539.46 399.721 540.838L399.75 541.5L400.125 542.062L400.217 543.75C400.508 544.617 400.386 545.185 400.592 546C400.884 547.156 400.732 545.716 400.834 547.049C400.897 547.871 401.102 548.391 400.688 549.111L400.04 544.595C398.915 539.739 398.17 534.779 397.28 529.875C396.961 528.114 396.866 525.983 396.246 524.325C395.885 523.361 394.983 522.632 394.237 521.954L393.826 521.589L392.812 520.528L391.85 520.688L391.315 521.921C390.153 521.171 389.068 521.68 387.727 521.843C383.378 522.374 379.1 522.288 374.742 522.059C372.266 521.929 369.928 521.48 367.444 521.808Z"/>
	<path fill="#0C7FB9" transform="scale(0.666667 0.666667)" d="M423.201 528.354L424.015 528.188C424.535 528.874 424.838 529.514 425.257 530.248C425.314 530.348 425.764 531.086 425.918 531.15C426.144 531.225 426.41 531.227 426.596 531.375C426.979 531.68 427.704 533.45 427.972 533.96C429.631 537.12 431.182 540.332 432.913 543.457C438.154 552.918 444.272 561.885 449.122 571.558C454.211 581.707 458.077 593.048 465.337 601.885C470.535 608.21 476.864 613.766 482.957 619.21C486.865 622.702 490.928 626.044 494.511 629.88C495.789 631.249 497.35 632.703 498.27 634.322C497.24 634.257 497.116 633.867 496.406 633.186L496.309 633.938L496.684 634.312C496.452 635.009 496.333 635.351 495.75 635.812L495.75 632.812C495.157 633.223 494.586 633.6 493.932 633.906L493.379 634.16L493.088 634.387C492.615 634.78 492.78 634.639 492.373 635.248L491.941 635.329C489.704 635.773 487.647 637.581 485.623 638.623L485.05 638.938C484.464 639.231 484.19 639.24 483.559 639.188C483.152 639.458 482.309 640.179 481.875 640.309C481.455 640.434 480.975 640.174 480.559 640.312C479.645 640.617 480.164 641.056 478.875 641.062L478.5 641.434L477.373 641.998L473.413 643.966C472.207 644.57 471.285 645.564 470.098 646.229C469.891 647.102 469.744 647.589 469.309 648.375L468.934 649.312L468.748 649.781C468.526 650.448 468.543 650.879 468.559 651.562L468.184 651.938L468.126 652.347C467.967 653.147 467.502 653.71 467.059 654.375C467.518 655.062 467.522 655.035 468.188 655.5L469.311 656.531L469.781 656.906L470.438 656.625L470.567 656.886L469.611 657.472L469.188 657.335C468.828 657.575 469.028 657.488 468.476 657.574C467.173 657.775 464.461 655.763 463.42 654.999C428.917 629.696 431.416 581.552 425.628 543.483L423.201 528.354Z"/>
	<path fill="#0B68A2" transform="scale(0.666667 0.666667)" d="M470.098 646.229L468.281 647.906L467.441 647.812L467.441 646.687C469.932 644.067 473.311 642.683 476.434 640.954C479.055 639.504 481.622 637.803 484.29 636.472L484.875 636.191C485.902 635.678 487.314 635.402 488.007 634.477L488.252 634.127L489.377 633.752C490.673 633.243 492.072 632.968 493.196 632.124C493.603 631.818 493.35 631.877 493.781 631.877L493.379 634.16L493.088 634.387C492.615 634.78 492.78 634.639 492.373 635.248L491.941 635.329C489.704 635.773 487.647 637.581 485.623 638.623L485.05 638.938C484.464 639.231 484.19 639.24 483.559 639.188C483.152 639.458 482.309 640.179 481.875 640.309C481.455 640.434 480.975 640.174 480.559 640.312C479.645 640.617 480.164 641.056 478.875 641.062L478.5 641.434L477.373 641.998L473.413 643.966C472.207 644.57 471.285 645.564 470.098 646.229Z"/>
	<path fill="#000006" transform="scale(0.666667 0.666667)" d="M423.201 528.354L424.015 528.188C424.535 528.874 424.838 529.514 425.257 530.248C425.314 530.348 425.764 531.086 425.918 531.15C432.466 557.187 431.832 584.39 438.763 610.396C442.173 623.191 446.798 634.522 455.402 644.759C459.384 649.496 464.31 653.57 469.188 657.335C468.828 657.575 469.028 657.488 468.476 657.574C467.173 657.775 464.461 655.763 463.42 654.999C428.917 629.696 431.416 581.552 425.628 543.483L423.201 528.354Z"/>
	<path fill="#FC6143" transform="scale(0.666667 0.666667)" d="M590.714 324.5C593.124 328.236 595.59 331.894 598.214 335.486C599.854 337.733 603.597 341.444 604.257 344.062L603.746 345.378C611.963 356.032 623.628 362.669 632.321 372.913C640.149 382.138 647.351 392.157 653.639 402.488C654.54 403.968 655.766 406.762 657.07 407.842C657.498 408.196 658.171 408.166 658.703 408.247L661.871 404.141L661.967 404.652C663.202 410.868 667.015 417.028 669.302 422.967C673.564 434.035 677.189 445.319 680.119 456.81C683.224 472.227 684.267 487.66 684.005 503.36C683.561 530.047 679.208 559.495 664.193 582.128C655.583 595.107 644.661 604.984 632.56 614.617C621.876 623.122 610.68 631.268 598.863 638.139C590.846 642.801 582.563 646.764 574.197 650.746C570.908 652.311 567.617 653.877 564.375 655.538C563.025 656.23 561.397 657.385 559.917 657.682C559.362 654.74 559.042 650.414 557.784 647.764L554.609 642.588C553.971 641.664 553.884 641.168 553.773 640.089L552.562 640.411C548.43 635.924 544.2 631.828 539.23 628.273L539.362 627.83C540.693 626.437 541.342 624.177 542.064 622.386C546.793 610.664 549.414 596.579 550.93 584.069C551.68 577.877 552.039 571.617 552.033 565.381C552.024 555.234 551.075 544.677 548.438 534.866C544.672 520.849 537.72 508.096 529.625 496.154C525.967 490.758 522.153 485.013 517.532 480.408C517.063 478.723 515.803 476.996 514.891 475.5C510.44 468.199 504.079 461.973 497.924 456.121C495.407 453.729 492.84 451.39 490.369 448.951C489.243 447.84 487.873 446.706 487.509 445.106C484.156 447.653 481.121 451.036 477.201 452.72C473.103 454.481 468.049 455 463.669 455.933C457.983 457.144 452.427 458.707 447 460.797C445.905 461.218 443.785 461.792 443.091 462.684L443.112 463.025L442.929 463.643C439.05 461.698 433.549 463.415 429.478 464.35C429.022 463.297 428.813 462.188 428.545 461.075L425.654 461.612C424.233 459.424 422.409 458.828 419.974 458.192C419.7 456.885 420.388 456.164 420.938 454.985C421.551 453.666 422.142 452.355 422.495 450.938C422.881 449.384 422.817 448.071 423.556 446.608L422.261 444.345L422.564 442.809C422.615 441.71 422.293 440.723 422.012 439.674L424.235 438.616L424.093 438.289C424.778 437.486 424.715 438.016 425.438 437.625C425.926 437.361 426.611 436.452 427.031 436.031C426.44 435.676 425.966 435.258 425.441 434.812C425.567 433.75 426.497 432.833 427.127 432.002L427.688 432C428.425 431.107 429.932 429.228 430.976 428.808C431.626 428.546 431.352 428.738 431.913 428.139L435.002 424.969C437.979 421.761 441.2 418.647 444.353 415.603C445.36 414.631 446.859 413.692 447.572 412.506L447.752 412.127C448.675 411.821 449.265 411.05 449.861 410.305L451.877 408.002L452.066 407.438C452.518 407.056 452.942 406.76 453.213 406.219C453.554 405.536 453.166 406.147 453.659 405.41L453.941 405L454.312 404.441L454.875 404.812C454.715 403.836 454.696 403.677 455.059 402.764L455.522 403.002C456.962 400.383 457.389 396.984 458.458 394.181C458.696 393.558 459.073 392.3 459.471 391.835C459.727 391.535 461.109 391.097 461.479 390.958C465.81 389.327 470.717 388.522 475.218 387.433C482.182 385.748 489.122 383.876 495.973 381.776C516.544 375.469 535.959 366.656 554.689 356.106C559.239 353.543 563.53 350.631 568.023 347.999L579.295 338.636C579.395 338.114 582.114 335.645 582.622 335.109C585.803 331.752 588.275 328.415 590.714 324.5Z"/>
	<path fill="#010439" transform="scale(0.666667 0.666667)" d="M424.235 438.616L424.093 438.289C424.778 437.486 424.715 438.016 425.438 437.625C425.926 437.361 426.611 436.452 427.031 436.031C426.44 435.676 425.966 435.258 425.441 434.812C425.567 433.75 426.497 432.833 427.127 432.002L427.688 432C428.425 431.107 429.932 429.228 430.976 428.808C431.626 428.546 431.352 428.738 431.913 428.139L435.002 424.969C437.979 421.761 441.2 418.647 444.353 415.603C445.36 414.631 446.859 413.692 447.572 412.506L447.752 412.127C448.675 411.821 449.265 411.05 449.861 410.305L451.877 408.002L452.066 407.438C452.518 407.056 452.942 406.76 453.213 406.219C453.554 405.536 453.166 406.147 453.659 405.41L453.941 405L454.312 404.441L454.875 404.812C454.715 403.836 454.696 403.677 455.059 402.764L455.522 403.002L455.657 404.246L456.249 404.465C457.829 405.071 458.945 405.673 459.942 407.062C460.139 409.3 459.341 410.521 457.889 412.217C455.207 415.348 451.6 418.042 448.5 420.776C442.307 426.239 436.082 432.489 428.802 436.489C427.457 437.228 425.755 438.362 424.235 438.616Z"/>
	<path fill="#010936" transform="scale(0.666667 0.666667)" d="M422.564 442.809L422.783 443.035C427.2 447.79 427.985 455.529 430.042 461.433C439.269 454.088 445.42 442.373 451.265 432.302C454.554 426.634 457.997 421.195 461.664 415.762C466.711 421.375 471.077 427.534 476.116 433.152C478.344 435.635 480.654 438.042 483.014 440.401C484.519 441.905 486.266 443.382 487.509 445.106C484.156 447.653 481.121 451.036 477.201 452.72C473.103 454.481 468.049 455 463.669 455.933C457.983 457.144 452.427 458.707 447 460.797C445.905 461.218 443.785 461.792 443.091 462.684L443.112 463.025L442.929 463.643C439.05 461.698 433.549 463.415 429.478 464.35C429.022 463.297 428.813 462.188 428.545 461.075L425.654 461.612C424.233 459.424 422.409 458.828 419.974 458.192C419.7 456.885 420.388 456.164 420.938 454.985C421.551 453.666 422.142 452.355 422.495 450.938C422.881 449.384 422.817 448.071 423.556 446.608L422.261 444.345L422.564 442.809Z"/>
	<path fill="#EFB48E" transform="scale(0.666667 0.666667)" d="M423.556 446.608C425.761 451.317 426.61 456.324 428.545 461.075L425.654 461.612C424.233 459.424 422.409 458.828 419.974 458.192C419.7 456.885 420.388 456.164 420.938 454.985C421.551 453.666 422.142 452.355 422.495 450.938C422.881 449.384 422.817 448.071 423.556 446.608Z"/>
	<path fill="#F6E4CF" transform="scale(0.666667 0.666667)" d="M579.295 338.636C579.144 339.95 578.821 341.25 578.724 342.562C578.418 346.714 579.551 351.592 580.482 355.621C583.033 366.663 587.616 377.109 591.919 387.55C599.743 406.534 608.167 425.707 618.185 443.648C622.472 451.326 627.465 458.456 632.286 465.793C633.741 468.008 640.753 478.044 639.454 480.75C639.272 481.13 638.66 481.779 638.322 482.062C633.812 485.844 623.304 485.781 617.856 484.919C604.175 482.756 594.563 472.275 586.83 461.516C582.086 454.915 577.732 447.932 574.542 440.438C571.411 433.083 569.317 425.376 567.707 417.562C563.618 397.722 562.969 376.396 566.338 356.387L568.023 347.999L579.295 338.636Z"/>
	<path fill="#010936" transform="scale(0.666667 0.666667)" d="M603.746 345.378C611.963 356.032 623.628 362.669 632.321 372.913C640.149 382.138 647.351 392.157 653.639 402.488C654.54 403.968 655.766 406.762 657.07 407.842C657.498 408.196 658.171 408.166 658.703 408.247L661.871 404.141L661.967 404.652C663.202 410.868 667.015 417.028 669.302 422.967C673.564 434.035 677.189 445.319 680.119 456.81C683.224 472.227 684.267 487.66 684.005 503.36C683.561 530.047 679.208 559.495 664.193 582.128C655.583 595.107 644.661 604.984 632.56 614.617C621.876 623.122 610.68 631.268 598.863 638.139C590.846 642.801 582.563 646.764 574.197 650.746C570.908 652.311 567.617 653.877 564.375 655.538C563.025 656.23 561.397 657.385 559.917 657.682C559.362 654.74 559.042 650.414 557.784 647.764L554.609 642.588C553.971 641.664 553.884 641.168 553.773 640.089C557.381 637.872 561.924 636.654 565.868 635.098C569.712 633.58 573.423 631.83 577.214 630.195C580.286 628.231 583.654 626.69 586.746 624.715C598.568 617.163 608.931 608.202 618.562 598.02C642.427 572.791 658.582 541.978 659.258 506.672C659.479 495.096 657.894 483.171 655.629 471.836C650.207 444.7 639.144 418.883 625.452 394.898C622.582 389.872 619.627 384.89 616.544 379.992C611.686 372.273 606.349 364.563 603.69 355.742C602.97 353.353 602.157 350.311 602.272 347.812C602.33 346.549 602.844 346.162 603.746 345.378Z"/>
	<path fill="#FF6F49" transform="scale(0.666667 0.666667)" d="M658.703 408.247L661.871 404.141L661.967 404.652C663.202 410.868 667.015 417.028 669.302 422.967C673.564 434.035 677.189 445.319 680.119 456.81C683.224 472.227 684.267 487.66 684.005 503.36C683.561 530.047 679.208 559.495 664.193 582.128C655.583 595.107 644.661 604.984 632.56 614.617C621.876 623.122 610.68 631.268 598.863 638.139C590.846 642.801 582.563 646.764 574.197 650.746C570.908 652.311 567.617 653.877 564.375 655.538C563.025 656.23 561.397 657.385 559.917 657.682C559.362 654.74 559.042 650.414 557.784 647.764L554.609 642.588C553.971 641.664 553.884 641.168 553.773 640.089C557.381 637.872 561.924 636.654 565.868 635.098C569.712 633.58 573.423 631.83 577.214 630.195L577.693 630.645C577.15 630.906 576.667 631.171 576.164 631.507L574.605 632.508L574.219 632.719L574.5 633.191C575.15 632.671 575.771 632.33 576.562 632.066L577.219 631.877L577.688 631.691L578.344 631.502C579.837 630.861 578.245 631.338 579.562 630.941L580.5 630.658L581.062 630.191C581.818 630.114 582.17 630.022 582.845 629.637C583.595 629.211 583.33 629.29 584.076 629.041L585.752 628.502C586.699 628.179 587.891 628.056 588.75 627.566C589.62 627.07 590.008 627.191 591 627.191C591.95 628.607 592.546 627.367 593.906 627.752L593.998 628.502L594.562 628.691C595.018 628.272 595.395 627.993 595.969 627.752C596.674 627.456 597.051 626.949 597.752 626.627C598.652 626.213 598.013 626.703 598.646 626.159L598.969 625.877L599.437 625.691C600.853 624.836 600.793 624.653 602.59 624.543L602.713 624.511C606.898 622.344 610.978 619.246 614.904 616.598C634.803 603.178 651.766 587.3 662.855 565.717C668.178 555.358 671.116 543.587 673.028 532.157C678.068 502.024 676.026 472.466 668.183 442.98C666.586 436.974 664.828 431.067 662.673 425.237C660.786 420.129 658.533 415.156 656.874 409.965L658.703 408.247Z"/>
	<defs>
		<linearGradient id="gradient_9" gradientUnits="userSpaceOnUse" x1="591.93799" y1="629.81201" x2="577.72101" y2="656.65698">
			<stop offset="0" stop-color="#003F89"/>
			<stop offset="1" stop-color="#005AA5"/>
		</linearGradient>
	</defs>
	<path fill="url(#gradient_9)" transform="scale(0.666667 0.666667)" d="M577.214 630.195L577.693 630.645C577.15 630.906 576.667 631.171 576.164 631.507L574.605 632.508L574.219 632.719L574.5 633.191C575.15 632.671 575.771 632.33 576.562 632.066L577.219 631.877L577.688 631.691L578.344 631.502C579.837 630.861 578.245 631.338 579.562 630.941L580.5 630.658L581.062 630.191C581.818 630.114 582.17 630.022 582.845 629.637C583.595 629.211 583.33 629.29 584.076 629.041L585.752 628.502C586.699 628.179 587.891 628.056 588.75 627.566C589.62 627.07 590.008 627.191 591 627.191C591.95 628.607 592.546 627.367 593.906 627.752L593.998 628.502L594.562 628.691C595.018 628.272 595.395 627.993 595.969 627.752C596.674 627.456 597.051 626.949 597.752 626.627C598.652 626.213 598.013 626.703 598.646 626.159L598.969 625.877L599.437 625.691C600.853 624.836 600.793 624.653 602.59 624.543L593.993 629.95C585.132 635.431 576.057 640.715 566.482 644.861C563.765 646.037 560.775 647.593 557.784 647.764L554.609 642.588C553.971 641.664 553.884 641.168 553.773 640.089C557.381 637.872 561.924 636.654 565.868 635.098C569.712 633.58 573.423 631.83 577.214 630.195Z"/>
	<path fill="#0D2D8D" transform="scale(0.666667 0.666667)" d="M577.214 630.195L577.693 630.645C577.15 630.906 576.667 631.171 576.164 631.507L574.605 632.508L574.219 632.719L574.5 633.191C575.15 632.671 575.771 632.33 576.562 632.066L577.219 631.877L577.688 631.691L578.344 631.502C579.837 630.861 578.245 631.338 579.562 630.941L580.5 630.658L581.062 630.191C581.818 630.114 582.17 630.022 582.845 629.637C583.595 629.211 583.33 629.29 584.076 629.041L585.752 628.502C586.699 628.179 587.891 628.056 588.75 627.566C589.62 627.07 590.008 627.191 591 627.191C591.95 628.607 592.546 627.367 593.906 627.752L593.998 628.502L594.562 628.691C595.018 628.272 595.395 627.993 595.969 627.752C596.674 627.456 597.051 626.949 597.752 626.627C598.652 626.213 598.013 626.703 598.646 626.159L598.969 625.877L599.437 625.691C600.853 624.836 600.793 624.653 602.59 624.543L593.993 629.95L593.505 629.822C592.284 629.464 593.416 629.828 592.401 629.32C591.39 628.814 587.669 628.747 586.641 629.224L586.312 629.409L585.373 629.598C582.683 630.243 579.696 631.816 577.13 632.893C569.607 636.049 562.2 639.629 554.609 642.588C553.971 641.664 553.884 641.168 553.773 640.089C557.381 637.872 561.924 636.654 565.868 635.098C569.712 633.58 573.423 631.83 577.214 630.195Z"/>
	<path fill="#FC6143" transform="scale(0.666667 0.666667)" d="M125.732 643.162C123.587 641.563 121.778 638.987 120.01 636.953C114.364 630.458 108.976 623.695 103.658 616.93C95.6039 606.685 87.1992 596.43 80.1632 585.45C55.5359 547.017 42.5988 501.649 34.1624 457.155C30.9928 440.439 29.8563 423.944 29.0564 406.987C28.1325 387.398 27.7812 367.544 29.9352 348.023C33.7144 313.776 44.4872 280.247 58.9809 249.086C67.1121 231.604 76.1678 214.912 87.0427 198.967C97.5687 183.534 110.283 169.699 123.39 156.433C168.176 111.101 222.57 73.3199 283.878 54.3886C292.852 51.6176 301.825 48.9798 311.067 47.243C355.622 38.8701 401.638 37.9656 446.469 44.8845C464.561 47.6765 482.447 51.5651 499.778 57.5447C522.319 65.3223 543.307 76.1622 563.51 88.7498C581.488 99.9514 597.198 113.95 614.117 126.559C618.391 129.744 622.95 132.484 627.346 135.486C617.406 136.331 607.528 137.116 597.774 139.352C582.101 142.946 567.68 150.415 557.203 162.748C547.76 173.863 541.593 189.852 540.212 204.253C539.917 207.332 540.988 211.851 539.785 214.547C543.719 222.019 547.298 229.667 551.024 237.244C551.621 238.458 553.586 241.487 553.678 242.624C553.987 246.746 556.317 251.609 557.687 255.564C561.825 267.511 566.307 279.585 572.063 290.856C577.899 302.284 584.796 313.095 590.714 324.5C588.275 328.415 585.803 331.752 582.622 335.109C582.114 335.645 579.395 338.114 579.295 338.636L568.023 347.999C563.53 350.631 559.239 353.543 554.689 356.106C535.959 366.656 516.544 375.469 495.973 381.776C489.122 383.876 482.182 385.748 475.218 387.433C470.717 388.522 465.81 389.327 461.479 390.958C461.109 391.097 459.727 391.535 459.471 391.835C459.073 392.3 458.696 393.558 458.458 394.181C457.389 396.984 456.962 400.383 455.522 403.002L455.059 402.764C454.696 403.677 454.715 403.836 454.875 404.812L454.312 404.441L453.941 405L453.659 405.41C453.166 406.147 453.554 405.536 453.213 406.219C452.942 406.76 452.518 407.056 452.066 407.438L451.877 408.002L449.861 410.305C449.265 411.05 448.675 411.821 447.752 412.127L447.572 412.506C446.859 413.692 445.36 414.631 444.353 415.603C441.2 418.647 437.979 421.761 435.002 424.969L431.913 428.139C431.352 428.738 431.626 428.546 430.976 428.808C429.932 429.228 428.425 431.107 427.688 432L427.127 432.002C426.497 432.833 425.567 433.75 425.441 434.812C425.966 435.258 426.44 435.676 427.031 436.031C426.611 436.452 425.926 437.361 425.438 437.625C424.715 438.016 424.778 437.486 424.093 438.289L424.235 438.616L422.012 439.674C420.426 440.136 419.057 440.218 417.41 440.203C417.271 433.2 414.193 425.555 409.169 420.647C404.045 415.642 397.062 413.407 389.97 413.549C383.896 413.671 377.209 416.11 373.049 420.674C368.55 425.612 367.347 432.136 367.549 438.601C369.085 446.189 369.085 453.929 372.589 461.061L372 462.764L374.139 465.556L372.216 467.408L369.265 463.816C368.248 462.154 366.949 460.903 365.582 459.535L351.621 456.904C338.784 446.71 327.193 435.905 319.444 421.212C301.602 442.393 278.795 458.968 261.947 480.986C257.502 486.796 253.309 492.748 250.401 499.502C244.848 512.398 243.447 527.507 244.669 541.422C246.092 557.639 249.847 573.567 254.32 589.185C255.97 594.945 257.922 600.615 259.571 606.372C260.937 611.141 261.701 616.078 263.018 620.806L262.763 624.756C256.318 623.572 250.006 622.181 243.926 619.673C231.499 614.546 222.731 605.457 214.514 595.125C210.317 589.848 206.321 584.281 201.395 579.644C195.744 574.327 189.521 570.545 182.745 566.905C178.704 565.394 174.929 564.398 170.655 563.863C158.161 562.299 146.277 566.831 136.58 574.468L133.579 577.111C130.935 580.269 128.454 583.437 126.534 587.098C121.151 597.363 118.894 611.952 119.962 623.412C120.609 630.36 122.876 636.838 125.732 643.162Z"/>
	<path fill="#010936" transform="scale(0.666667 0.666667)" d="M365.582 459.535C367.171 459.397 368.085 459.411 369.562 460.04L372 462.764L374.139 465.556L372.216 467.408L369.265 463.816C368.248 462.154 366.949 460.903 365.582 459.535Z"/>
	<path fill="#F6E4CF" transform="scale(0.666667 0.666667)" d="M151.561 356.684C153.019 356.713 154.375 356.685 155.74 357.291C156.986 357.844 158.127 358.883 158.594 360.188C159.084 361.557 159.095 363.162 158.462 364.489C157.558 366.387 155.478 367.035 153.626 367.593L150.75 367.025C148.984 366.449 147.068 364.846 146.302 363.138C145.945 362.341 146.045 361.512 146.401 360.721C147.39 358.524 149.427 357.494 151.561 356.684Z"/>
	<path fill="#F6E4CF" transform="scale(0.666667 0.666667)" d="M161.527 287.343C164.189 287.161 166.764 287.659 169.152 288.873C171.532 290.083 173.785 292.44 174.477 295.069C175.12 297.513 174.857 300.643 173.53 302.812C171.778 305.677 168.708 306.785 165.632 307.572C162.522 307.572 160.2 307.689 157.395 306.047C154.621 304.424 152.397 301.552 151.688 298.41C151.208 296.287 151.772 294.185 152.938 292.382C154.984 289.218 158.049 288.135 161.527 287.343Z"/>
	<path fill="#F6E4CF" transform="scale(0.666667 0.666667)" d="M138.683 208.273C141.826 208.488 144.601 209.129 147.181 211.015C149.557 212.75 151.402 215.302 151.754 218.268C152.06 220.851 151.583 223.359 149.842 225.362C147.462 228.099 144.532 228.377 141.171 228.591C138.751 228.189 136.541 227.754 134.432 226.397C131.567 224.556 128.688 221.242 128.064 217.843C127.71 215.917 128.397 214.443 129.562 212.941C131.939 209.878 134.942 208.681 138.683 208.273Z"/>
	<path fill="#F6E4CF" transform="scale(0.666667 0.666667)" d="M189.4 136.244C194.176 136.027 198.204 136.24 202.524 138.486C206.985 140.806 210.375 144.895 211.801 149.72C213.128 154.21 211.961 159.216 209.7 163.221C206.76 168.427 202.476 171.301 196.82 172.901L196.211 173.053C191.952 174.007 186.888 172.588 183.292 170.288C179.001 167.544 175.423 162.738 174.439 157.688C173.473 152.727 174.386 147.552 177.337 143.409C180.257 139.309 184.532 137.098 189.4 136.244Z"/>
	<path fill="#F6E4CF" transform="scale(0.666667 0.666667)" d="M133.579 577.111C132.734 574.077 133.094 570.018 133.034 566.856C132.878 558.75 133.746 550.296 132.654 542.274C131.67 535.05 128.753 528.246 124.743 522.192C120.678 516.056 114.841 511.011 109.628 505.877C99.5367 495.939 91.3467 483.234 90.4128 468.724C90.0018 462.337 90.7719 456.688 92.4997 450.574C93.6196 446.61 94.8994 442.461 96.9339 438.857C101.235 431.239 109.093 424.955 115.949 419.647C120.75 415.93 126.275 412.456 130.312 407.908C132.639 405.287 135.279 400.986 134.883 397.357C134.62 394.937 133.197 393.311 131.689 391.514C128.094 387.229 123.855 383.026 119.528 379.486C118.108 382.888 117.14 386.529 115.883 390C114.418 394.044 112.592 397.933 110.571 401.726C105.856 410.58 99.8931 418.641 95.1582 427.444C90.9331 435.299 89.5699 443.318 88.8049 452.104C88.3414 457.428 88.0968 463.241 88.6547 468.558C89.1099 472.897 90.1995 477.111 91.0641 481.375C88.9153 478.528 87.151 475.342 85.3044 472.291C79.6532 462.954 75.3915 453.978 72.2207 443.501C67.4699 427.802 63.292 411.593 61.6436 395.244C60.1813 380.741 60.7637 366.211 62.9042 351.804C64.8572 338.659 68.2266 325.953 74.5867 314.198C87.0402 291.181 109.66 274.965 132.06 262.386C135.236 260.602 138.551 258.967 141.865 257.457C144.289 256.353 146.961 255.312 149.155 253.779C150.717 252.688 151.777 250.086 152.722 248.458C155.365 243.909 159.737 238.567 165.054 237.219C167.711 236.545 170.941 236.92 173.25 238.446C175.673 240.047 177.315 242.377 177.797 245.253C178.353 248.572 177.339 251.342 174.938 253.652C170.183 258.224 162.955 260.209 157.245 263.378C148.362 268.31 140.314 274.821 132.951 281.787C127 287.417 121.288 293.434 116.621 300.188C113.687 304.434 110.367 309.942 109.847 315.19C109.535 318.346 110.491 321.286 111.554 324.218C115.175 334.204 122.045 341.96 129.188 349.618C134.538 355.355 140.286 361.088 146.203 366.244C150.235 369.758 155.205 372.219 158.812 376.219C162.759 380.595 165.892 386.006 166.916 391.853C169.343 405.695 156.573 417.157 146.16 423.909C137.03 429.83 126.062 433.958 119.66 443.217C113.505 452.118 111.005 465.177 112.952 475.766C115.018 486.999 121.183 496.269 128.131 505.094C131.386 509.228 134.725 513.328 138.85 516.636C143.549 520.403 149.046 523.116 153.994 526.54C166.035 534.87 175.086 545.023 180.181 558.814C181.145 561.424 182.241 564.165 182.745 566.905C178.704 565.394 174.929 564.398 170.655 563.863C158.161 562.299 146.277 566.831 136.58 574.468L133.579 577.111Z"/>
	<path fill="#010936" transform="scale(0.666667 0.666667)" d="M367.549 438.601C352.335 435.627 336.06 434.786 325.847 421.171C324.207 418.985 321.978 415.926 322.499 413.062C323.299 408.666 328.523 406.166 331.952 403.995C330.791 401.694 326.547 391.097 325.215 390.187C323.379 388.933 319.629 388.656 317.426 388.194C304.041 385.391 291.366 382.06 278.923 376.254C252.758 364.046 225.611 347.562 215.372 318.905C205.796 292.105 213.256 259.743 225.104 234.955C230.482 223.701 237.516 213.193 244.828 203.112C262.809 178.321 285.526 156.406 310.95 139.316C326.785 128.672 343.67 119.82 360.713 111.313C365.653 108.847 370.609 106.388 375.47 103.77C379.634 101.528 383.655 98.9262 388.127 97.3433C393.475 99.2958 398.425 102.399 403.388 105.161C409.776 108.716 416.183 112.232 422.559 115.809C435.984 123.341 449.622 130.577 462.562 138.934C475.338 147.184 487.774 156.78 498.87 167.188C504.157 172.146 509.089 177.519 514.034 182.814C523.402 192.847 532.222 203.057 539.785 214.547C543.719 222.019 547.298 229.667 551.024 237.244C551.621 238.458 553.586 241.487 553.678 242.624C553.987 246.746 556.317 251.609 557.687 255.564C561.825 267.511 566.307 279.585 572.063 290.856C577.899 302.284 584.796 313.095 590.714 324.5C588.275 328.415 585.803 331.752 582.622 335.109C582.114 335.645 579.395 338.114 579.295 338.636L568.023 347.999C563.53 350.631 559.239 353.543 554.689 356.106C535.959 366.656 516.544 375.469 495.973 381.776C489.122 383.876 482.182 385.748 475.218 387.433C470.717 388.522 465.81 389.327 461.479 390.958C461.109 391.097 459.727 391.535 459.471 391.835C459.073 392.3 458.696 393.558 458.458 394.181C457.389 396.984 456.962 400.383 455.522 403.002L455.059 402.764C454.696 403.677 454.715 403.836 454.875 404.812L454.312 404.441L453.941 405L453.659 405.41C453.166 406.147 453.554 405.536 453.213 406.219C452.942 406.76 452.518 407.056 452.066 407.438L451.877 408.002L449.861 410.305C449.265 411.05 448.675 411.821 447.752 412.127L447.572 412.506C446.859 413.692 445.36 414.631 444.353 415.603C441.2 418.647 437.979 421.761 435.002 424.969L431.913 428.139C431.352 428.738 431.626 428.546 430.976 428.808C429.932 429.228 428.425 431.107 427.688 432L427.127 432.002C426.497 432.833 425.567 433.75 425.441 434.812C425.966 435.258 426.44 435.676 427.031 436.031C426.611 436.452 425.926 437.361 425.438 437.625C424.715 438.016 424.778 437.486 424.093 438.289L424.235 438.616L422.012 439.674C420.426 440.136 419.057 440.218 417.41 440.203C417.271 433.2 414.193 425.555 409.169 420.647C404.045 415.642 397.062 413.407 389.97 413.549C383.896 413.671 377.209 416.11 373.049 420.674C368.55 425.612 367.347 432.136 367.549 438.601Z"/>
	<path fill="#0B68A2" transform="scale(0.666667 0.666667)" d="M352.877 378.13C324.055 368.87 296.465 356.779 276.6 333.055C272.403 328.042 268.467 322.908 265.487 317.062C256.012 298.475 251.513 275.567 258.045 255.278C260.773 246.806 265.449 239.139 270.636 231.976C282.497 215.595 297.597 201.776 315.719 192.577C322.648 189.059 329.784 186.152 337.052 183.424C347.945 179.336 359.293 175.943 370.897 174.686C390.884 172.52 411.673 176.961 430.567 183.202C459.179 192.652 486.173 208.974 505.302 232.494C509.507 237.666 513.608 243.09 516.631 249.055C519.402 254.524 520.882 260.096 522.005 266.101C525.049 282.372 523.54 299.151 518.31 314.863C510.591 338.05 495.286 355.127 473.438 365.939C464.249 370.486 454.167 373.561 444.375 376.539C438.693 378.267 432.958 380.203 427.162 381.492L427.039 381.631C408.53 388.127 389.83 387.678 370.875 383.665C364.719 382.361 358.577 380.845 352.877 378.13Z"/>
	<path fill="#C24A6E" transform="scale(0.666667 0.666667)" d="M388.144 352.664C391.372 352.362 395.453 352.13 398.585 352.98L398.926 353.625L395.486 357.807C394.954 358.171 394.353 358.638 393.75 358.866C390.963 359.918 389.666 354.442 387.051 353.706L386.327 353.525C386.716 352.933 387.479 352.876 388.144 352.664Z"/>
	<path fill="#E88786" transform="scale(0.666667 0.666667)" d="M487.262 338.2L487.078 337.912C485.825 335.095 489.909 327.392 491.484 325.007C492.531 323.422 493.771 322.137 494.596 320.396L494.737 320.085C494.765 321.204 494.573 322.705 495.184 323.625L495.188 324.566L496.836 325.657C494.037 330.185 490.499 334.005 487.262 338.2Z"/>
	<path fill="#3CCEFE" transform="scale(0.666667 0.666667)" d="M437.407 338.37C440.285 337.318 443.793 337.529 446.816 337.507C451.094 337.476 455.371 337.47 459.648 337.455C466.366 337.431 473.111 337.056 479.822 337.425C477.704 341.071 475.121 346.106 470.695 347.203C466.543 348.232 462.128 348.069 457.877 348.111C451.284 348.176 444.849 348.034 438.287 347.351C435.336 347.043 431.332 346.611 428.755 345.087C428.194 344.755 427.835 344.447 427.502 343.875C427.786 341.821 428.626 341.064 430.269 339.828L430.626 339.565L437.407 338.37Z"/>
	<path fill="#3CCEFE" transform="scale(0.666667 0.666667)" d="M290.564 319.061C293.981 324.576 297.782 330.112 303.415 333.593L306.571 333.61C307.633 334.454 308.757 335.458 310.053 335.909C313.216 337.008 317.409 337.135 320.729 337.308C327.541 337.664 334.337 337.803 341.151 338.232C344.114 338.419 347.555 338.37 350.43 339.08C352.396 339.619 354.39 339.692 356.413 339.815L356.918 340.688C356.669 341.117 356.46 341.482 356.08 341.812C354.394 343.281 352.254 343.975 350.155 344.597C344.099 346.392 337.712 346.689 331.433 346.755C324.911 346.822 317.229 346.673 311.089 344.203C304.166 341.416 298.391 335.653 293.139 330.522C290.673 327.798 288.934 324.965 287.306 321.679C288.761 320.935 289.721 320.495 290.564 319.061Z"/>
	<defs>
		<linearGradient id="gradient_10" gradientUnits="userSpaceOnUse" x1="365.81201" y1="176.062" x2="399.20499" y2="383.96701">
			<stop offset="0" stop-color="#FF7943"/>
			<stop offset="1" stop-color="#FF4C5C"/>
		</linearGradient>
	</defs>
	<path fill="url(#gradient_10)" transform="scale(0.666667 0.666667)" d="M352.877 378.13C324.055 368.87 296.465 356.779 276.6 333.055C272.403 328.042 268.467 322.908 265.487 317.062C256.012 298.475 251.513 275.567 258.045 255.278C260.773 246.806 265.449 239.139 270.636 231.976C282.497 215.595 297.597 201.776 315.719 192.577C322.648 189.059 329.784 186.152 337.052 183.424C347.945 179.336 359.293 175.943 370.897 174.686C390.884 172.52 411.673 176.961 430.567 183.202C459.179 192.652 486.173 208.974 505.302 232.494C509.507 237.666 513.608 243.09 516.631 249.055C519.402 254.524 520.882 260.096 522.005 266.101C525.049 282.372 523.54 299.151 518.31 314.863C510.591 338.05 495.286 355.127 473.438 365.939C464.249 370.486 454.167 373.561 444.375 376.539C438.693 378.267 432.958 380.203 427.162 381.492C428.51 378.698 434.9 376.096 437.638 374.615C444.686 370.804 451.543 366.693 458.428 362.6C464.536 358.968 470.787 355.352 476.415 351.001C480.637 347.738 484.431 343.97 488.293 340.298C488.089 339.447 487.752 338.918 487.262 338.2C490.499 334.005 494.037 330.185 496.836 325.657L495.188 324.566L495.184 323.625C494.573 322.705 494.765 321.204 494.737 320.085C494.591 319.638 495.168 317.905 495.292 317.354C493.455 317.18 491.621 317.091 489.815 317.515C488.811 317.751 487.968 317.896 486.938 317.942L486.562 316.587C485.615 323.884 484.445 331.436 479.822 337.425C473.111 337.056 466.366 337.431 459.648 337.455C455.371 337.47 451.094 337.476 446.816 337.507C443.793 337.529 440.285 337.318 437.407 338.37L430.626 339.565L430.122 339.352L427.981 339.588L427.08 338.812C425.943 335.501 426.004 331.693 425.927 328.216C425.625 314.587 427.045 300.737 432.285 288.045C435.25 280.866 440.003 275.025 445.412 269.525C460.197 254.49 477.589 245.725 496.794 237.757C494.646 232.929 491.171 229.253 487.494 225.532C479.49 217.434 470.749 211.01 460.699 205.674C429.373 189.043 390.504 176.821 355.354 187.615C331.373 194.98 307.297 206.779 290.175 225.481C286.82 229.146 283.614 232.763 281.274 237.188C281.354 238.733 281.726 239.201 282.88 240.246C286.646 243.654 291.88 245.96 296.285 248.465C302.376 251.929 308.375 255.49 314.071 259.582C319.129 263.216 323.908 267.53 328.069 272.172C335.742 280.733 341.998 290.982 346.322 301.625C348.893 307.956 350.709 314.449 352.62 320.991C354.246 326.563 356.452 332.793 356.074 338.677L356.046 339.003L356.413 339.815C354.39 339.692 352.396 339.619 350.43 339.08C347.555 338.37 344.114 338.419 341.151 338.232C334.337 337.803 327.541 337.664 320.729 337.308C317.409 337.135 313.216 337.008 310.053 335.909C308.757 335.458 307.633 334.454 306.571 333.61L303.415 333.593C297.782 330.112 293.981 324.576 290.564 319.061C289.721 320.495 288.761 320.935 287.306 321.679C288.934 324.965 290.673 327.798 293.139 330.522C292.87 331.486 292.567 332.374 292.635 333.388C296.658 337.554 300.575 341.425 305.212 344.929C311.235 349.481 317.534 353.876 323.787 358.112C330.362 362.566 337.126 366.744 343.781 371.076C346.382 372.769 351.358 375.44 352.877 378.13Z"/>
	<path fill="#000006" transform="scale(0.666667 0.666667)" d="M438.908 298.567L439.138 299.108C439.469 300.054 439.113 300.267 439.147 301.125L439.309 301.688L438.559 302.438L438.562 303.191C439.155 303.02 439.531 302.853 440.062 302.562L440.434 303L440.894 302.965L441.861 303.249C438.081 305.369 435.935 307.34 433.223 310.699L438.908 298.567Z"/>
	<path fill="#000006" transform="scale(0.666667 0.666667)" d="M508.091 252.648C512.677 258.077 513.209 265.11 513.532 271.966L512.908 272.568C512.258 266.26 510.153 259.787 506.36 254.665L506.807 253.727L507.597 253.201L508.091 252.648Z"/>
	<path fill="#0D2D8D" transform="scale(0.666667 0.666667)" d="M350.43 339.08L352.562 338.812C351.493 337.686 349.257 337.44 347.785 337.097C346.588 332.924 346.748 327.378 346.397 322.998C349.311 328.178 351.719 334.177 355.713 338.64L356.046 339.003L356.413 339.815C354.39 339.692 352.396 339.619 350.43 339.08Z"/>
	<path fill="#0D2D8D" transform="scale(0.666667 0.666667)" d="M430.122 339.352C431.673 337.449 432.093 334.277 432.646 331.916C433.455 328.467 434.27 325.088 435.389 321.723L437.407 338.37L430.626 339.565L430.122 339.352Z"/>
	<defs>
		<linearGradient id="gradient_11" gradientUnits="userSpaceOnUse" x1="510.18799" y1="302.81201" x2="500.57199" y2="300.121">
			<stop offset="0" stop-color="#010023"/>
			<stop offset="1" stop-color="#051C4B"/>
		</linearGradient>
	</defs>
	<path fill="url(#gradient_11)" transform="scale(0.666667 0.666667)" d="M513.532 271.966C513.93 275.724 513.757 279.612 513.61 283.384C512.961 300.075 508.138 317.474 497.488 330.594C494.769 333.944 491.634 337.548 488.293 340.298C488.089 339.447 487.752 338.918 487.262 338.2C490.499 334.005 494.037 330.185 496.836 325.657C502.986 316.211 507.083 306.142 509.062 295.038C509.702 291.452 509.569 287.276 510.724 283.867L511.258 283.991C512.517 282.136 511.994 280.192 512.298 278.064L512.404 277.362L512.69 277.331C513.264 276.072 512.937 273.957 512.908 272.568L513.532 271.966Z"/>
	<path fill="#EFB48E" transform="scale(0.666667 0.666667)" d="M495.292 317.354L497.573 291.954L499.312 291.086C501.957 289.798 503.922 288.06 506.072 286.104C507.267 285.017 508.564 283.583 510 282.858L510.724 283.867C509.569 287.276 509.702 291.452 509.062 295.038C507.083 306.142 502.986 316.211 496.836 325.657L495.188 324.566L495.184 323.625C494.573 322.705 494.765 321.204 494.737 320.085C494.591 319.638 495.168 317.905 495.292 317.354Z"/>
	<path fill="#010936" transform="scale(0.666667 0.666667)" d="M438.908 298.567C440.666 294.526 443.468 290.603 446.12 287.097C456.922 272.813 471.837 262.641 488.187 255.638C492.663 253.72 497.268 251.778 502.131 251.15C504.688 250.819 505.999 251.047 508.091 252.648L507.597 253.201L506.807 253.727L506.36 254.665C510.153 259.787 512.258 266.26 512.908 272.568C512.937 273.957 513.264 276.072 512.69 277.331L512.404 277.362L512.298 278.064C511.994 280.192 512.517 282.136 511.258 283.991L510.724 283.867L510 282.858C508.564 283.583 507.267 285.017 506.072 286.104C503.922 288.06 501.957 289.798 499.312 291.086L497.573 291.954L495.292 317.354C493.455 317.18 491.621 317.091 489.815 317.515C488.811 317.751 487.968 317.896 486.938 317.942L486.562 316.587C487.133 307.497 486.004 297.948 484.549 288.975C469.844 292.367 455.896 297.818 441.861 303.249L440.894 302.965L440.434 303L440.062 302.562C439.531 302.853 439.155 303.02 438.562 303.191L438.559 302.438L439.309 301.688L439.147 301.125C439.113 300.267 439.469 300.054 439.138 299.108L438.908 298.567Z"/>
	<path fill="#E13D46" transform="scale(0.666667 0.666667)" d="M512.404 277.362C512.04 271.771 509.923 266.128 507.748 261C507.264 259.858 504.894 255.707 504.938 254.751C504.948 254.509 505.095 254.292 505.174 254.062L506.36 254.665C510.153 259.787 512.258 266.26 512.908 272.568C512.937 273.957 513.264 276.072 512.69 277.331L512.404 277.362Z"/>
	<path fill="#010936" transform="scale(0.666667 0.666667)" d="M292.635 333.388C289.709 330.369 286.743 327.377 284.185 324.032C273.163 309.623 265.302 289.693 265.574 271.384C265.673 264.722 267.069 257.92 269.488 251.722C285.287 254.109 299.299 263.375 311.046 273.754C317.694 279.628 323.832 285.911 329.114 293.062L338.682 307.782L294.381 295.16C294.627 308.882 296.626 323.381 306.571 333.61L303.415 333.593C297.782 330.112 293.981 324.576 290.564 319.061C289.721 320.495 288.761 320.935 287.306 321.679C288.934 324.965 290.673 327.798 293.139 330.522C292.87 331.486 292.567 332.374 292.635 333.388Z"/>
	<path fill="#FCE3C5" transform="scale(0.666667 0.666667)" d="M287.306 321.679L283.386 310.822C282.144 306.226 281.263 301.496 280.323 296.828C280.049 295.465 279.132 292.643 279.799 291.485C280.816 291.446 281.978 291.289 282.965 291.56C283.7 291.761 283.612 293.951 283.667 294.66C284.319 303.039 286.826 311.561 290.564 319.061C289.721 320.495 288.761 320.935 287.306 321.679Z"/>
</svg>
