<svg xmlns="http://www.w3.org/2000/svg" xmlns:xlink="http://www.w3.org/1999/xlink" width="18" height="18.00000000000028" viewBox="0 0 18 18.00000000000028" fill="none"><g opacity="1"  transform="translate(0 0)  rotate(0)"><path id="矩形" fill-rule="evenodd" style="fill:#000000" opacity="1" d="M9 18L9 18C13.97 18 18 13.97 18 9L18 9C18 4.03 13.97 0 9 0L9 0C4.03 0 0 4.03 0 9L0 9C0 13.97 4.03 18 9 18Z"></path><g opacity="1"  transform="translate(3.69677734375 5.111328125)  rotate(0)"><path id="矩形" fill-rule="evenodd" style="fill:#FFFFFF" opacity="1" d="M0.706956 4.24241L3.53538 7.07084C3.92429 7.45975 4.56069 7.45975 4.9496 7.07084L4.9496 7.07084C5.3385 6.68193 5.33851 6.04554 4.9496 5.65663L2.12117 2.8282C1.73226 2.43929 1.09586 2.43929 0.706956 2.8282L0.706956 2.8282C0.318047 3.21711 0.318047 3.85351 0.706956 4.24241Z"></path><path id="矩形备份" fill-rule="evenodd" style="fill:#FFFFFF" opacity="1" d="M4.94993 7.07136L9.89968 2.12162C10.2886 1.73271 10.2886 1.09631 9.89968 0.707404L9.89968 0.707404C9.51077 0.318495 8.87438 0.318495 8.48547 0.707404L3.53572 5.65715C3.14681 6.04606 3.14681 6.68246 3.53572 7.07136L3.53572 7.07136C3.92463 7.46027 4.56102 7.46027 4.94993 7.07136Z"></path></g></g></svg>