<svg xmlns="http://www.w3.org/2000/svg" xmlns:xlink="http://www.w3.org/1999/xlink" width="18" height="18.00000000000028" viewBox="0 0 18 18.00000000000028" fill="none"><g opacity="1"  transform="translate(0 0)  rotate(0)"><path id="矩形" fill-rule="evenodd" style="fill:#000000" opacity="1" d="M9 18L9 18C13.97 18 18 13.97 18 9L18 9C18 4.03 13.97 0 9 0L9 0C4.03 0 0 4.03 0 9L0 9C0 13.97 4.03 18 9 18Z"></path><g opacity="1"  transform="translate(5.11083984375 5.111328125)  rotate(0)"><path id="矩形" fill-rule="evenodd" style="fill:#FFFFFF" opacity="1" d="M0.706956 2.12132L5.6567 7.07107C6.04561 7.45998 6.68201 7.45998 7.07092 7.07107L7.07092 7.07107C7.45983 6.68216 7.45983 6.04576 7.07092 5.65685L2.12117 0.707107C1.73226 0.318198 1.09586 0.318198 0.706956 0.707107L0.706956 0.707107C0.318047 1.09602 0.318047 1.73241 0.706956 2.12132Z"></path><path id="矩形备份" fill-rule="evenodd" style="fill:#FFFFFF" opacity="1" d="M2.12132 7.07136L7.07107 2.12162C7.45998 1.73271 7.45998 1.09631 7.07107 0.707404L7.07107 0.707404C6.68216 0.318495 6.04576 0.318495 5.65685 0.707404L0.707107 5.65715C0.318198 6.04606 0.318198 6.68246 0.707107 7.07136L0.707107 7.07136C1.09602 7.46027 1.73241 7.46027 2.12132 7.07136Z"></path></g></g></svg>