<svg xmlns="http://www.w3.org/2000/svg" xmlns:xlink="http://www.w3.org/1999/xlink" width="42"
    height="43" viewBox="0 0 42 43" fill="none">
    <g opacity="1" transform="translate(1 1)  rotate(0)">
        <g id="undefined" filter="url(#filter_0)"> stroke="#000000" stroke-width="2"
            stroke-opacity="1" stroke-dasharray="undefined,undefined"<rect fill="#FFFFFF"
                opacity="1" transform="translate(0 0)  rotate(0)" x="0" y="0" width="36" height="37"
                rx="8" ry="8" /></g>
        <path id="矩形" fill-rule="evenodd" style="fill:#000000" opacity="1"
            d="M10.5 14L23.5 14C24.33 14 25 13.33 25 12.5L25 12.5C25 11.67 24.33 11 23.5 11L10.5 11C9.67 11 9 11.67 9 12.5L9 12.5C9 13.33 9.67 14 10.5 14Z"></path>
        <path id="矩形备份 3" fill-rule="evenodd" style="fill:#000000" opacity="1"
            d="M10.5 20L19.5 20C20.33 20 21 19.33 21 18.5L21 18.5C21 17.67 20.33 17 19.5 17L10.5 17C9.67 17 9 17.67 9 18.5L9 18.5C9 19.33 9.67 20 10.5 20Z"></path>
        <path id="矩形备份 5" fill-rule="evenodd" style="fill:#000000" opacity="1"
            d="M10.5 26L25.5 26C26.33 26 27 25.33 27 24.5L27 24.5C27 23.67 26.33 23 25.5 23L10.5 23C9.67 23 9 23.67 9 24.5L9 24.5C9 25.33 9.67 26 10.5 26Z"></path>
    </g>
    <defs>
        <filter id="filter_0" x="360" y="112" width="40" height="41" filterUnits="userSpaceOnUse"
            color-interpolation-filters="sRGB">
            <feFlood flood-opacity="0" result="feFloodId" />
            <feColorMatrix in="SourceAlpha" type="matrix"
                values="0 0 0 0 0 0 0 0 0 0 0 0 0 0 0 0 0 0 127 0" result="hardAlpha" />

            <feOffset dx="2" dy="2" />
            <feComposite in2="hardAlpha" operator="out" />

            <feColorMatrix type="matrix" values="0 0 0 0 0 0 0 0 0 0 0 0 0 0 0 0 0 0 1 0" />
            <feBlend mode="normal" in2="filter_feFlood" result="filter_feFlood_1" />
            <feBlend mode="normal" in="SourceGraphic" in2="filter_0" result="shape" />
        </filter>
    </defs>
</svg>