<svg xmlns="http://www.w3.org/2000/svg" xmlns:xlink="http://www.w3.org/1999/xlink"
    width="50.9119873046875" height="16.970703125" viewBox="0 0 50.9119873046875 16.970703125"
    fill="none">
    <g opacity="1" transform="translate(0.00006103515625 0)  rotate(0)">
        <g opacity="0.3" transform="translate(8.48529052734375 16.970703125)  rotate(0)">
            <path id="矩形" fill-rule="evenodd" style="fill:#FFFFFF" opacity="1"
                d="M7.77817 -9.19239L7.77817 -9.19239C7.38927 -9.5813 6.75287 -9.5813 6.36396 -9.19239L-0.707107 -2.12132C-1.09602 -1.73241 -1.09602 -1.09602 -0.707107 -0.707107L-0.707107 -0.707107C-0.318198 -0.318198 0.318198 -0.318198 0.707107 -0.707107L7.77817 -7.77817C8.16708 -8.16708 8.16708 -8.80348 7.77817 -9.19239Z"></path>
            <path id="矩形备份 51" fill-rule="evenodd" style="fill:#FFFFFF" opacity="1"
                d="M7.77817 -7.77798L7.77817 -7.77798C8.16708 -8.16689 8.16708 -8.80328 7.77817 -9.19219L0.707105 -16.2633C0.318197 -16.6522 -0.3182 -16.6522 -0.707108 -16.2633L-0.707108 -16.2633C-1.09602 -15.8744 -1.09602 -15.238 -0.707108 -14.849L6.36396 -7.77798C6.75287 -7.38907 7.38926 -7.38907 7.77817 -7.77798Z"></path>
        </g>
        <g opacity="0.5" transform="translate(25.455841064453125 16.970703125)  rotate(0)">
            <path id="矩形" fill-rule="evenodd" style="fill:#FFFFFF" opacity="1"
                d="M7.77817 -9.19239L7.77817 -9.19239C7.38927 -9.5813 6.75287 -9.5813 6.36396 -9.19239L-0.707107 -2.12132C-1.09602 -1.73241 -1.09602 -1.09602 -0.707107 -0.707107L-0.707107 -0.707107C-0.318198 -0.318198 0.318198 -0.318198 0.707107 -0.707107L7.77817 -7.77817C8.16708 -8.16708 8.16708 -8.80348 7.77817 -9.19239Z"></path>
            <path id="矩形备份 51" fill-rule="evenodd" style="fill:#FFFFFF" opacity="1"
                d="M7.77817 -7.77798L7.77817 -7.77798C8.16708 -8.16689 8.16708 -8.80328 7.77817 -9.19219L0.707105 -16.2633C0.318197 -16.6522 -0.3182 -16.6522 -0.707108 -16.2633L-0.707108 -16.2633C-1.09602 -15.8744 -1.09602 -15.238 -0.707108 -14.849L6.36396 -7.77798C6.75287 -7.38907 7.38926 -7.38907 7.77817 -7.77798Z"></path>
        </g>
        <g opacity="1" transform="translate(42.4263916015625 16.970703125)  rotate(0)">
            <path id="矩形" fill-rule="evenodd" style="fill:#FFFFFF" opacity="1"
                d="M7.77817 -9.19239L7.77817 -9.19239C7.38927 -9.5813 6.75287 -9.5813 6.36396 -9.19239L-0.707107 -2.12132C-1.09602 -1.73241 -1.09602 -1.09602 -0.707107 -0.707107L-0.707107 -0.707107C-0.318198 -0.318198 0.318198 -0.318198 0.707107 -0.707107L7.77817 -7.77817C8.16708 -8.16708 8.16708 -8.80348 7.77817 -9.19239Z"></path>
            <path id="矩形备份 51" fill-rule="evenodd" style="fill:#FFFFFF" opacity="1"
                d="M7.77817 -7.77798L7.77817 -7.77798C8.16708 -8.16689 8.16708 -8.80328 7.77817 -9.19219L0.707105 -16.2633C0.318197 -16.6522 -0.3182 -16.6522 -0.707108 -16.2633L-0.707108 -16.2633C-1.09602 -15.8744 -1.09602 -15.238 -0.707108 -14.849L6.36396 -7.77798C6.75287 -7.38907 7.38926 -7.38907 7.77817 -7.77798Z"></path>
        </g>
    </g>
</svg>