<svg xmlns="http://www.w3.org/2000/svg" xmlns:xlink="http://www.w3.org/1999/xlink" width="20" height="20" viewBox="0 0 20 20" fill="none">
<path d="M19.5106 6.90983L16.4721 5.29772L15.8779 1.90983L12.4721 2.39155L10 0L7.52786 2.39155L4.12215 1.90983L3.52786 5.29772L0.489435 6.90983L2 10L0.489435 13.0902L3.52786 14.7023L4.12215 18.0902L7.52786 17.6085L10 20L12.4721 17.6085L15.8779 18.0902L16.4721 14.7023L19.5106 13.0902L18 10L19.5106 6.90983Z"   fill="#FFD600" >
</path>
<rect  x="5.05029296875" y="9.292892456054688" width="2" height="6" transform="rotate(-45 5.05029296875 9.292892456054688)" rx="1.5"    fill="#000000" >
</rect>
<rect  transform="matrix(0.7071067690849304, 0.7071067690849304, 0.7071067690849304, -0.7071067690849304, 7.87890625, 12.121322631835938)" x="0" y="0" width="2" height="8" rx="1.5"    fill="#000000" >
</rect>
</svg>
