<svg xmlns="http://www.w3.org/2000/svg" xmlns:xlink="http://www.w3.org/1999/xlink" width="48.0830078125" height="48.08326721191406" viewBox="0 0 48.0830078125 48.08326721191406" fill="none"><g opacity="1"  transform="translate(24.0419921875 1.4140777587890625)  rotate(0)"><path id="椭圆形" fill-rule="evenodd" style="fill:#FFFFFF" opacity="0" d="M11.3137 11.3137C5.06288 5.06288 -5.06288 5.06288 -11.3137 11.3137C-17.5645 17.5645 -17.5645 27.6903 -11.3137 33.9411C-5.06289 40.1919 5.06289 40.1919 11.3137 33.9411C17.5645 27.6903 17.5645 17.5645 11.3137 11.3137Z"></path><path  id="椭圆形" style="fill:#FFFFFF; opacity:1;" d="M10.6066 12.0208C4.74874 6.16295 -4.74874 6.16295 -10.6066 12.0208C-16.4645 17.8787 -16.4645 27.3762 -10.6066 33.234C-4.74874 39.0919 4.74874 39.0919 10.6066 33.234C16.4645 27.3762 16.4645 17.8787 10.6066 12.0208ZM12.0208 10.6066C18.6597 17.2455 18.6597 28.0093 12.0208 34.6482C5.3819 41.2871 -5.3819 41.2871 -12.0208 34.6482C-18.6597 28.0093 -18.6597 17.2455 -12.0208 10.6066C-5.3819 3.96769 5.3819 3.96769 12.0208 10.6066Z"></path><path id="矩形" fill-rule="evenodd" style="fill:#FFFFFF" opacity="1" d="M-5.65734 19.0919L3.53505 28.2843C4.12195 28.8712 5.06947 28.8712 5.65637 28.2843L5.65637 28.2843C6.24327 27.6974 6.24327 26.7498 5.65637 26.1629L-3.53602 16.9706C-4.12292 16.3837 -5.07044 16.3837 -5.65734 16.9706L-5.65734 16.9706C-6.24424 17.5575 -6.24424 18.505 -5.65734 19.0919Z"></path><path id="矩形备份" fill-rule="evenodd" style="fill:#FFFFFF" opacity="1" d="M3.53579 16.9706L-5.6566 26.1629C-6.24349 26.7498 -6.24349 27.6974 -5.6566 28.2843L-5.6566 28.2843C-5.0697 28.8712 -4.12217 28.8712 -3.53527 28.2843L5.65711 19.0919C6.24401 18.505 6.24401 17.5575 5.65711 16.9706L5.65711 16.9706C5.07021 16.3837 4.12269 16.3837 3.53579 16.9706Z"></path></g></svg>